<svg width="493" height="282" viewBox="0 0 493 282" fill="none" xmlns="http://www.w3.org/2000/svg">
<line y1="-2" x2="94" y2="-2" transform="matrix(-4.37114e-08 1 1 4.37114e-08 392 58)" stroke="url(#paint0_linear)" stroke-width="4"/>
<line y1="-2" x2="94" y2="-2" transform="matrix(-1 0 0 1 485 152)" stroke="url(#paint1_linear)" stroke-width="4"/>
<line y1="-2" x2="51" y2="-2" transform="matrix(1 0 0 -1 341 148)" stroke="url(#paint2_linear)" stroke-width="4"/>
<line y1="-2" x2="51" y2="-2" transform="matrix(0 -1 -1 0 388.5 199.5)" stroke="url(#paint3_linear)" stroke-width="4"/>
<line x1="390.5" y1="282" x2="390.5" y2="-2.18557e-08" stroke="url(#paint4_linear)" stroke-opacity="0.24"/>
<line y1="-0.5" x2="493" y2="-0.5" transform="matrix(-1 8.74228e-08 8.74228e-08 1 493 151)" stroke="url(#paint5_linear)" stroke-opacity="0.24"/>
<defs>
<linearGradient id="paint0_linear" x1="95.209" y1="-5.38316e-05" x2="0" y2="-5.35242e-05" gradientUnits="userSpaceOnUse">
<stop stop-color="#00D1FF" stop-opacity="0"/>
<stop offset="0.0001" stop-color="#0DD1FF"/>
<stop offset="1" stop-color="#A8A8A8" stop-opacity="0"/>
</linearGradient>
<linearGradient id="paint1_linear" x1="95.209" y1="-5.38316e-05" x2="0" y2="-5.35242e-05" gradientUnits="userSpaceOnUse">
<stop stop-color="#00D1FF" stop-opacity="0"/>
<stop offset="0.0001" stop-color="#0DD1FF"/>
<stop offset="1" stop-color="#A8A8A8" stop-opacity="0"/>
</linearGradient>
<linearGradient id="paint2_linear" x1="51.6559" y1="-5.38316e-05" x2="0" y2="-5.37411e-05" gradientUnits="userSpaceOnUse">
<stop stop-color="#00D1FF" stop-opacity="0"/>
<stop offset="0.0001" stop-color="#0DD1FF"/>
<stop offset="1" stop-color="#A8A8A8" stop-opacity="0"/>
</linearGradient>
<linearGradient id="paint3_linear" x1="51.6559" y1="-5.38316e-05" x2="0" y2="-5.37411e-05" gradientUnits="userSpaceOnUse">
<stop stop-color="#00D1FF" stop-opacity="0"/>
<stop offset="0.0001" stop-color="#0DD1FF"/>
<stop offset="1" stop-color="#A8A8A8" stop-opacity="0"/>
</linearGradient>
<linearGradient id="paint4_linear" x1="391" y1="-3.62701" x2="391" y2="282" gradientUnits="userSpaceOnUse">
<stop stop-color="#A8A8A8"/>
<stop stop-color="#A8A8A8" stop-opacity="0"/>
<stop offset="1" stop-color="#A8A8A8"/>
</linearGradient>
<linearGradient id="paint5_linear" x1="499.341" y1="-5.38316e-05" x2="0" y2="-4.5377e-05" gradientUnits="userSpaceOnUse">
<stop stop-color="#A8A8A8" stop-opacity="0"/>
<stop stop-color="#A8A8A8" stop-opacity="0"/>
<stop offset="1" stop-color="#A8A8A8"/>
</linearGradient>
</defs>
</svg>
