<svg width="493" height="282" viewBox="0 0 493 282" fill="none" xmlns="http://www.w3.org/2000/svg">
<line x1="103" y1="58" x2="103" y2="152" stroke="url(#paint0_linear)" stroke-width="4"/>
<line x1="8" y1="150" x2="102" y2="150" stroke="url(#paint1_linear)" stroke-width="4"/>
<line x1="152" y1="150" x2="101" y2="150" stroke="url(#paint2_linear)" stroke-width="4"/>
<line x1="102.5" y1="199.5" x2="102.5" y2="148.5" stroke="url(#paint3_linear)" stroke-width="4"/>
<line y1="-0.5" x2="282" y2="-0.5" transform="matrix(-4.37114e-08 -1 -1 4.37114e-08 102 282)" stroke="url(#paint4_linear)" stroke-opacity="0.24"/>
<line x1="4.37114e-08" y1="150.5" x2="493" y2="150.5" stroke="url(#paint5_linear)" stroke-opacity="0.24"/>
<defs>
<linearGradient id="paint0_linear" x1="101" y1="153.209" x2="101" y2="58" gradientUnits="userSpaceOnUse">
<stop stop-color="#00D1FF" stop-opacity="0"/>
<stop offset="0.0001" stop-color="#0DD1FF"/>
<stop offset="1" stop-color="#A8A8A8" stop-opacity="0"/>
</linearGradient>
<linearGradient id="paint1_linear" x1="103.209" y1="152" x2="8" y2="152" gradientUnits="userSpaceOnUse">
<stop stop-color="#00D1FF" stop-opacity="0"/>
<stop offset="0.0001" stop-color="#0DD1FF"/>
<stop offset="1" stop-color="#A8A8A8" stop-opacity="0"/>
</linearGradient>
<linearGradient id="paint2_linear" x1="100.344" y1="148" x2="152" y2="148" gradientUnits="userSpaceOnUse">
<stop stop-color="#00D1FF" stop-opacity="0"/>
<stop offset="0.0001" stop-color="#0DD1FF"/>
<stop offset="1" stop-color="#A8A8A8" stop-opacity="0"/>
</linearGradient>
<linearGradient id="paint3_linear" x1="104.5" y1="147.844" x2="104.5" y2="199.5" gradientUnits="userSpaceOnUse">
<stop stop-color="#00D1FF" stop-opacity="0"/>
<stop offset="0.0001" stop-color="#0DD1FF"/>
<stop offset="1" stop-color="#A8A8A8" stop-opacity="0"/>
</linearGradient>
<linearGradient id="paint4_linear" x1="285.627" y1="-5.38316e-05" x2="0" y2="-5.10653e-05" gradientUnits="userSpaceOnUse">
<stop stop-color="#A8A8A8"/>
<stop stop-color="#A8A8A8" stop-opacity="0"/>
<stop offset="1" stop-color="#A8A8A8"/>
</linearGradient>
<linearGradient id="paint5_linear" x1="499.341" y1="151" x2="0" y2="151" gradientUnits="userSpaceOnUse">
<stop stop-color="#A8A8A8" stop-opacity="0"/>
<stop stop-color="#A8A8A8" stop-opacity="0"/>
<stop offset="1" stop-color="#A8A8A8"/>
</linearGradient>
</defs>
</svg>
