<svg width="776" height="198" viewBox="0 0 776 198" fill="none" xmlns="http://www.w3.org/2000/svg">
<ellipse cx="380.802" cy="155.422" rx="256" ry="42" fill="#1F1E3E"/>
<path d="M741.802 82.4217C741.802 85.5183 739.657 88.7627 735.017 92.0888C730.409 95.3923 723.548 98.62 714.616 101.718C696.765 107.908 670.879 113.5 638.826 118.202C574.736 127.603 486.162 133.422 388.302 133.422C290.443 133.422 201.869 127.603 137.778 118.202C105.725 113.5 79.8393 107.908 61.9883 101.718C53.0564 98.62 46.1956 95.3923 41.587 92.0888C36.9471 88.7627 34.8022 85.5183 34.8022 82.4217C34.8022 79.3251 36.9471 76.0807 41.587 72.7546C46.1956 69.4511 53.0564 66.2233 61.9883 63.1257C79.8393 56.9349 105.725 51.3432 137.778 46.6416C201.869 37.2404 290.443 31.4217 388.302 31.4217C486.162 31.4217 574.736 37.2404 638.826 46.6416C670.879 51.3432 696.765 56.9349 714.616 63.1257C723.548 66.2233 730.409 69.4511 735.017 72.7546C739.657 76.0807 741.802 79.3251 741.802 82.4217Z" stroke="#A4A4C5" stroke-opacity="0.2" stroke-width="2"/>
<path d="M774.802 57.4217C774.802 60.8647 772.425 64.4462 767.346 68.0972C762.298 71.726 754.789 75.2675 745.022 78.6642C725.501 85.453 697.199 91.5833 662.161 96.7374C592.098 107.043 495.274 113.422 388.302 113.422C281.33 113.422 184.506 107.043 114.444 96.7374C79.4052 91.5833 51.1032 85.453 31.5824 78.6642C21.8157 75.2675 14.3067 71.726 9.25856 68.0972C4.1796 64.4462 1.80225 60.8647 1.80225 57.4217C1.80225 53.9787 4.1796 50.3972 9.25856 46.7462C14.3067 43.1174 21.8157 39.5759 31.5824 36.1792C51.1032 29.3904 79.4052 23.26 114.444 18.106C184.506 7.80004 281.33 1.42169 388.302 1.42169C495.274 1.42169 592.098 7.80004 662.161 18.106C697.199 23.26 725.501 29.3904 745.022 36.1792C754.789 39.5759 762.298 43.1174 767.346 46.7462C772.425 50.3972 774.802 53.9787 774.802 57.4217Z" stroke="#A4A4C5" stroke-opacity="0.2" stroke-width="2"/>
<path d="M685.425 115.712C686.017 116.613 686.421 117.521 686.632 118.437C686.119 118.514 685.746 118.976 685.786 119.501C685.797 119.641 685.802 119.782 685.802 119.922C685.802 120.062 685.797 120.202 685.786 120.342C685.746 120.867 686.119 121.329 686.632 121.407C686.421 122.322 686.017 123.231 685.425 124.131C684.992 123.818 684.387 123.9 684.053 124.323C683.87 124.557 683.671 124.791 683.457 125.027C683.092 125.428 683.115 126.044 683.502 126.418C682.826 127.076 682.05 127.73 681.175 128.378C680.859 127.934 680.244 127.826 679.794 128.137C679.541 128.311 679.281 128.485 679.013 128.66C678.553 128.958 678.42 129.57 678.712 130.032C677.897 130.531 677.024 131.027 676.093 131.52C675.841 131.033 675.242 130.839 674.752 131.088C674.456 131.238 674.154 131.388 673.847 131.538C673.353 131.778 673.146 132.373 673.382 132.868C672.504 133.28 671.585 133.689 670.626 134.095C670.414 133.588 669.832 133.346 669.323 133.556C669.006 133.686 668.685 133.816 668.36 133.945C667.848 134.149 667.598 134.728 667.799 135.24C666.897 135.59 665.964 135.938 665.002 136.284C664.818 135.765 664.248 135.493 663.728 135.675C663.413 135.786 663.094 135.897 662.771 136.007C662.25 136.186 661.972 136.752 662.149 137.274C661.223 137.584 660.274 137.892 659.301 138.199C659.137 137.673 658.578 137.378 658.052 137.541C657.726 137.641 657.397 137.742 657.065 137.842C656.537 138.002 656.239 138.559 656.397 139.086C655.467 139.363 654.517 139.637 653.549 139.91C653.401 139.379 652.85 139.068 652.319 139.215C651.991 139.306 651.662 139.396 651.33 139.487C650.798 139.631 650.484 140.18 650.628 140.712C649.684 140.965 648.724 141.216 647.748 141.465C647.613 140.931 647.07 140.607 646.535 140.741C646.21 140.823 645.883 140.905 645.554 140.986C645.019 141.119 644.692 141.66 644.824 142.196C643.863 142.431 642.887 142.664 641.896 142.896C641.771 142.359 641.235 142.024 640.697 142.149C640.554 142.182 640.411 142.215 640.268 142.247C640.088 142.289 639.908 142.33 639.727 142.371C639.189 142.494 638.852 143.029 638.974 143.567C637.992 143.788 636.997 144.008 635.988 144.226C635.872 143.686 635.341 143.343 634.802 143.458C634.483 143.526 634.164 143.594 633.843 143.661C633.303 143.775 632.957 144.305 633.071 144.845C632.095 145.049 631.107 145.251 630.108 145.452C630 144.911 629.474 144.559 628.932 144.667C628.599 144.733 628.264 144.799 627.927 144.865C627.386 144.972 627.033 145.497 627.139 146.038C626.177 146.225 625.206 146.41 624.224 146.595C624.123 146.052 623.601 145.694 623.058 145.795C622.73 145.856 622.401 145.917 622.071 145.978C621.528 146.077 621.168 146.598 621.268 147.141C620.279 147.321 619.28 147.499 618.272 147.677C618.177 147.133 617.659 146.769 617.115 146.864L616.923 146.897C616.664 146.942 616.404 146.987 616.143 147.032C615.599 147.126 615.234 147.643 615.328 148.187C614.342 148.355 613.348 148.522 612.345 148.688C612.256 148.143 611.742 147.774 611.197 147.863C610.863 147.918 610.527 147.973 610.191 148.027C609.646 148.116 609.276 148.629 609.364 149.174C608.39 149.33 607.409 149.486 606.42 149.64C606.335 149.094 605.824 148.721 605.279 148.805C604.95 148.856 604.621 148.906 604.291 148.957C603.745 149.04 603.37 149.55 603.453 150.096C602.448 150.248 601.434 150.4 600.414 150.55C600.334 150.004 599.826 149.626 599.28 149.705C598.957 149.752 598.633 149.799 598.308 149.846C597.761 149.925 597.382 150.432 597.461 150.979C596.483 151.118 595.499 151.258 594.508 151.396C594.432 150.849 593.928 150.467 593.381 150.542C593.049 150.588 592.716 150.634 592.382 150.679C591.835 150.754 591.453 151.258 591.527 151.805C590.53 151.94 589.527 152.074 588.517 152.208C588.445 151.66 587.944 151.275 587.396 151.346C587.07 151.389 586.742 151.432 586.415 151.474C585.867 151.545 585.481 152.046 585.551 152.594C584.561 152.721 583.565 152.847 582.564 152.972C582.495 152.424 581.996 152.035 581.448 152.103C581.114 152.145 580.779 152.186 580.443 152.227C579.895 152.295 579.506 152.793 579.573 153.341C578.582 153.462 577.585 153.582 576.583 153.701C576.518 153.152 576.021 152.76 575.473 152.825C575.144 152.863 574.815 152.902 574.485 152.94C573.937 153.004 573.544 153.5 573.608 154.049C572.61 154.164 571.608 154.278 570.6 154.392C570.538 153.843 570.044 153.448 569.495 153.509C569.16 153.547 568.824 153.584 568.487 153.621C567.938 153.682 567.543 154.176 567.603 154.725C566.614 154.833 565.621 154.941 564.623 155.047C564.565 154.498 564.073 154.1 563.524 154.159C563.194 154.194 562.863 154.228 562.532 154.263C561.983 154.321 561.585 154.813 561.642 155.362C560.641 155.466 559.635 155.569 558.624 155.672C558.569 155.123 558.079 154.722 557.529 154.777C557.193 154.811 556.857 154.845 556.52 154.878C555.97 154.933 555.569 155.423 555.624 155.972C554.635 156.07 553.643 156.167 552.646 156.263C552.593 155.713 552.105 155.31 551.555 155.363C551.225 155.394 550.894 155.426 550.562 155.457C550.012 155.509 549.609 155.997 549.661 156.546C548.658 156.64 547.651 156.733 546.641 156.826C546.591 156.276 546.104 155.871 545.555 155.92C545.218 155.951 544.882 155.981 544.545 156.011C543.995 156.061 543.589 156.546 543.638 157.096C542.647 157.184 541.653 157.272 540.654 157.358C540.607 156.808 540.123 156.401 539.572 156.448C539.241 156.476 538.91 156.505 538.578 156.533C538.028 156.58 537.62 157.063 537.667 157.614C536.665 157.698 535.659 157.782 534.649 157.865C534.605 157.314 534.122 156.905 533.572 156.949C533.236 156.977 532.9 157.004 532.563 157.031C532.013 157.075 531.603 157.557 531.647 158.108C530.652 158.187 529.653 158.266 528.651 158.344C528.608 157.793 528.128 157.382 527.577 157.424C527.246 157.449 526.915 157.475 526.583 157.5C526.033 157.542 525.62 158.022 525.662 158.573C524.662 158.649 523.658 158.723 522.651 158.797C522.611 158.247 522.132 157.833 521.581 157.873L521.294 157.894C521.054 157.911 520.814 157.929 520.574 157.946C520.023 157.986 519.609 158.464 519.649 159.015C518.648 159.087 517.644 159.157 516.637 159.227C516.599 158.676 516.121 158.261 515.57 158.299C515.24 158.321 514.909 158.344 514.577 158.366C514.026 158.404 513.61 158.881 513.648 159.432C512.65 159.499 511.649 159.566 510.645 159.631C510.609 159.08 510.133 158.663 509.582 158.698C509.248 158.72 508.913 158.742 508.577 158.763C508.026 158.799 507.608 159.274 507.643 159.825C506.636 159.889 505.625 159.952 504.612 160.015C504.578 159.464 504.104 159.044 503.553 159.078C503.223 159.098 502.892 159.118 502.561 159.138C502.01 159.171 501.59 159.645 501.623 160.196C500.628 160.256 499.631 160.314 498.63 160.372C498.598 159.821 498.126 159.4 497.575 159.431L496.975 159.465L496.572 159.488C496.021 159.52 495.599 159.992 495.63 160.543C494.618 160.6 493.603 160.656 492.585 160.711C492.555 160.16 492.084 159.737 491.533 159.766L490.535 159.82C489.984 159.849 489.56 160.319 489.589 160.871C488.597 160.923 487.603 160.974 486.607 161.025C486.579 160.473 486.109 160.049 485.558 160.076L484.557 160.126C484.006 160.153 483.581 160.623 483.608 161.174C482.6 161.223 481.59 161.272 480.578 161.32C480.552 160.768 480.084 160.342 479.532 160.368L478.522 160.414C477.971 160.44 477.544 160.908 477.57 161.459C476.573 161.504 475.574 161.549 474.573 161.593C474.549 161.041 474.083 160.613 473.531 160.637L472.533 160.68C471.982 160.704 471.553 161.17 471.577 161.722C470.574 161.764 469.568 161.805 468.561 161.846C468.539 161.294 468.074 160.865 467.522 160.887L466.515 160.927C465.964 160.949 465.534 161.413 465.556 161.965C464.549 162.004 463.541 162.043 462.531 162.08C462.511 161.528 462.047 161.097 461.495 161.118L460.5 161.154C459.948 161.174 459.517 161.637 459.536 162.189C458.538 162.224 457.537 162.259 456.534 162.293C456.516 161.741 456.053 161.309 455.501 161.327L454.498 161.361C453.946 161.379 453.513 161.841 453.531 162.393C452.52 162.425 451.506 162.457 450.491 162.488C450.474 161.937 450.013 161.503 449.461 161.519L448.457 161.549C447.905 161.566 447.471 162.027 447.487 162.578C446.492 162.607 445.496 162.636 444.498 162.663C444.483 162.111 444.023 161.676 443.471 161.691L442.47 161.718C441.918 161.732 441.483 162.192 441.497 162.744C440.491 162.77 439.483 162.795 438.473 162.82C438.46 162.268 438.001 161.831 437.449 161.845L436.442 161.869C435.89 161.882 435.453 162.339 435.466 162.891C434.463 162.915 433.458 162.937 432.452 162.958C432.44 162.406 431.983 161.968 431.431 161.98L430.433 162C429.881 162.012 429.442 162.468 429.453 163.02C428.452 163.04 427.449 163.059 426.444 163.078C426.434 162.526 425.978 162.086 425.426 162.096L424.422 162.114C423.87 162.124 423.43 162.579 423.439 163.131C422.428 163.148 421.414 163.164 420.399 163.18C420.391 162.628 419.937 162.187 419.384 162.195L418.387 162.21C417.835 162.218 417.393 162.672 417.401 163.224C416.404 163.238 415.405 163.251 414.405 163.263C414.398 162.711 413.945 162.269 413.393 162.276L412.391 162.287C411.839 162.294 411.397 162.746 411.403 163.298C410.396 163.309 409.388 163.32 408.378 163.329C408.373 162.777 407.922 162.334 407.369 162.339L406.362 162.347C405.81 162.352 405.366 162.803 405.371 163.356C404.367 163.364 403.363 163.371 402.356 163.377C402.353 162.825 401.903 162.38 401.35 162.384L400.351 162.39C399.799 162.393 399.354 162.843 399.357 163.395C398.355 163.4 397.351 163.404 396.346 163.408C396.344 162.856 395.895 162.41 395.343 162.411L394.339 162.414C393.787 162.416 393.34 162.865 393.342 163.417C392.331 163.419 391.32 163.42 390.307 163.421C390.307 162.869 389.859 162.421 389.307 162.422L388.802 162.422L388.298 162.422C387.746 162.421 387.298 162.869 387.298 163.421C386.285 163.42 385.273 163.419 384.263 163.417C384.264 162.865 383.818 162.416 383.265 162.414L382.261 162.411C381.709 162.41 381.26 162.856 381.258 163.408C380.253 163.404 379.25 163.4 378.248 163.395C378.251 162.843 377.805 162.393 377.253 162.39L376.254 162.384C375.702 162.38 375.252 162.825 375.248 163.377C374.242 163.371 373.237 163.364 372.234 163.356C372.238 162.803 371.794 162.352 371.242 162.347L370.235 162.339C369.683 162.334 369.231 162.777 369.226 163.329C368.217 163.32 367.209 163.309 366.202 163.298C366.208 162.746 365.765 162.294 365.213 162.287L364.212 162.276C363.66 162.269 363.207 162.711 363.2 163.263C362.2 163.251 361.201 163.238 360.203 163.224C360.211 162.672 359.77 162.218 359.218 162.21L358.22 162.195C357.668 162.187 357.214 162.628 357.205 163.18C356.19 163.164 355.177 163.148 354.165 163.131C354.175 162.579 353.735 162.124 353.183 162.114L352.178 162.096C351.626 162.086 351.171 162.526 351.161 163.078C350.156 163.059 349.153 163.04 348.151 163.02C348.162 162.468 347.724 162.012 347.172 162L346.174 161.98C345.621 161.968 345.165 162.406 345.153 162.958C344.147 162.937 343.142 162.915 342.139 162.891C342.152 162.339 341.715 161.882 341.163 161.869L340.155 161.845C339.603 161.831 339.145 162.268 339.131 162.82C338.122 162.795 337.114 162.77 336.107 162.744C336.122 162.192 335.686 161.732 335.134 161.718L334.134 161.691C333.582 161.676 333.122 162.111 333.107 162.663C332.109 162.636 331.112 162.607 330.118 162.578C330.134 162.027 329.7 161.566 329.148 161.549L328.143 161.519C327.591 161.503 327.13 161.937 327.113 162.489C326.098 162.457 325.085 162.425 324.073 162.393C324.091 161.841 323.658 161.379 323.107 161.361L322.103 161.327C321.551 161.309 321.089 161.741 321.07 162.293C320.068 162.259 319.067 162.224 318.068 162.189C318.088 161.637 317.657 161.174 317.105 161.154L316.109 161.118C315.557 161.097 315.094 161.528 315.073 162.08C314.063 162.043 313.055 162.004 312.049 161.965C312.071 161.413 311.641 160.949 311.089 160.927L310.083 160.887C309.531 160.865 309.066 161.294 309.044 161.846C308.036 161.805 307.031 161.764 306.028 161.722C306.051 161.17 305.623 160.704 305.071 160.68L304.073 160.637C303.522 160.613 303.055 161.041 303.031 161.593C302.03 161.549 301.031 161.504 300.035 161.459C300.06 160.908 299.634 160.44 299.082 160.414L298.072 160.368C297.521 160.342 297.053 160.768 297.027 161.32C296.014 161.272 295.004 161.223 293.996 161.174C294.024 160.623 293.599 160.153 293.047 160.126L292.047 160.076C291.495 160.049 291.026 160.473 290.998 161.025C290.001 160.974 289.007 160.923 288.015 160.871C288.044 160.319 287.621 159.849 287.07 159.82L286.072 159.766C285.521 159.737 285.05 160.16 285.02 160.711C284.002 160.656 282.987 160.6 281.974 160.543C282.005 159.992 281.584 159.52 281.033 159.488C280.698 159.469 280.364 159.45 280.03 159.431C279.479 159.4 279.006 159.821 278.974 160.372C277.974 160.314 276.976 160.256 275.981 160.196C276.014 159.645 275.595 159.171 275.043 159.138C274.712 159.118 274.382 159.098 274.051 159.078C273.5 159.044 273.026 159.464 272.992 160.015C271.979 159.952 270.969 159.889 269.961 159.825C269.996 159.274 269.578 158.799 269.027 158.763C268.692 158.742 268.357 158.72 268.022 158.698C267.471 158.663 266.996 159.08 266.96 159.631C265.956 159.566 264.955 159.499 263.957 159.432C263.994 158.881 263.578 158.404 263.027 158.366L262.796 158.351C262.542 158.333 262.288 158.316 262.034 158.299C261.483 158.261 261.006 158.676 260.968 159.227C259.961 159.157 258.957 159.087 257.956 159.015C257.995 158.464 257.581 157.986 257.03 157.946C256.694 157.922 256.359 157.897 256.023 157.873C255.473 157.833 254.994 158.247 254.953 158.797C253.946 158.723 252.943 158.649 251.942 158.573C251.984 158.022 251.572 157.542 251.021 157.5C250.856 157.487 250.69 157.475 250.524 157.462C250.359 157.449 250.193 157.437 250.028 157.424C249.477 157.382 248.996 157.793 248.954 158.344C247.952 158.266 246.953 158.187 245.958 158.108C246.002 157.557 245.592 157.075 245.041 157.031C244.894 157.019 244.746 157.007 244.598 156.995C244.41 156.98 244.221 156.965 244.033 156.949C243.483 156.905 243 157.314 242.955 157.865C241.946 157.782 240.94 157.698 239.938 157.614C239.984 157.063 239.576 156.58 239.026 156.533C238.818 156.515 238.61 156.497 238.403 156.48L238.032 156.448C237.482 156.401 236.998 156.808 236.95 157.358C235.952 157.272 234.957 157.184 233.966 157.096C234.015 156.546 233.61 156.061 233.06 156.011C232.723 155.981 232.386 155.951 232.05 155.92C231.5 155.871 231.014 156.276 230.964 156.826C229.953 156.733 228.947 156.64 227.944 156.546C227.996 155.997 227.592 155.509 227.043 155.457C226.711 155.426 226.38 155.394 226.049 155.363C225.5 155.31 225.012 155.713 224.959 156.263C223.962 156.167 222.969 156.07 221.981 155.972C222.035 155.423 221.634 154.933 221.085 154.878C220.748 154.845 220.411 154.811 220.075 154.777C219.526 154.722 219.036 155.123 218.98 155.672C217.97 155.569 216.964 155.466 215.963 155.362C216.02 154.813 215.622 154.321 215.072 154.263C214.741 154.228 214.411 154.194 214.081 154.159C213.532 154.101 213.04 154.498 212.981 155.047C211.983 154.941 210.99 154.833 210.002 154.725C210.062 154.176 209.666 153.682 209.118 153.621L208.84 153.591C208.596 153.564 208.353 153.537 208.109 153.509C207.561 153.448 207.066 153.843 207.005 154.392C205.997 154.278 204.994 154.164 203.997 154.049C204.06 153.5 203.668 153.004 203.119 152.94C202.789 152.902 202.46 152.863 202.132 152.825C201.583 152.76 201.086 153.152 201.022 153.701C200.02 153.582 199.023 153.462 198.032 153.341C198.099 152.793 197.709 152.295 197.161 152.227C196.826 152.186 196.491 152.145 196.156 152.103C195.608 152.035 195.109 152.424 195.041 152.972C194.039 152.847 193.043 152.721 192.053 152.594C192.124 152.046 191.738 151.545 191.19 151.474C190.862 151.432 190.535 151.389 190.208 151.346C189.661 151.275 189.159 151.66 189.087 152.208C188.078 152.074 187.074 151.94 186.077 151.805C186.152 151.258 185.769 150.754 185.222 150.68C184.889 150.634 184.556 150.588 184.224 150.542C183.677 150.467 183.172 150.849 183.096 151.396C182.106 151.258 181.121 151.119 180.144 150.979C180.222 150.432 179.843 149.925 179.297 149.846C179.179 149.829 179.06 149.812 178.943 149.795C178.736 149.765 178.53 149.735 178.325 149.705C177.778 149.626 177.271 150.004 177.191 150.55C176.17 150.4 175.157 150.248 174.151 150.096C174.234 149.55 173.86 149.04 173.314 148.957C172.984 148.906 172.654 148.856 172.326 148.805C171.78 148.721 171.27 149.094 171.185 149.64C170.196 149.486 169.215 149.33 168.241 149.174C168.329 148.629 167.959 148.116 167.414 148.028C167.077 147.973 166.742 147.918 166.408 147.864C165.863 147.774 165.349 148.143 165.259 148.688C164.256 148.522 163.262 148.355 162.277 148.187C162.37 147.643 162.005 147.126 161.461 147.032C161.136 146.976 160.812 146.92 160.489 146.864C159.945 146.769 159.428 147.133 159.332 147.677C158.324 147.499 157.326 147.321 156.337 147.141C156.436 146.598 156.077 146.077 155.534 145.978C155.204 145.917 154.874 145.856 154.546 145.795C154.003 145.694 153.482 146.052 153.381 146.595C152.399 146.41 151.427 146.225 150.466 146.038C150.572 145.497 150.219 144.972 149.677 144.865C149.341 144.799 149.006 144.733 148.672 144.667C148.131 144.559 147.605 144.911 147.497 145.452C146.497 145.251 145.51 145.049 144.534 144.845C144.647 144.305 144.302 143.775 143.762 143.661C143.441 143.594 143.121 143.526 142.803 143.458C142.263 143.343 141.732 143.686 141.616 144.226C140.608 144.008 139.612 143.788 138.631 143.567C138.752 143.029 138.416 142.494 137.878 142.371C137.553 142.297 137.229 142.223 136.908 142.149C136.37 142.024 135.833 142.359 135.708 142.896C134.718 142.664 133.742 142.431 132.781 142.196C132.912 141.66 132.586 141.119 132.05 140.986C131.722 140.905 131.395 140.823 131.07 140.741C130.535 140.607 129.992 140.931 129.856 141.465C128.88 141.216 127.92 140.965 126.977 140.712C127.121 140.18 126.806 139.631 126.274 139.487C125.943 139.396 125.613 139.306 125.286 139.215C124.754 139.068 124.204 139.379 124.056 139.91C123.087 139.637 122.138 139.363 121.208 139.086C121.366 138.559 121.067 138.002 120.539 137.842C120.208 137.742 119.879 137.641 119.553 137.541C119.026 137.378 118.467 137.673 118.303 138.199C117.33 137.892 116.381 137.584 115.456 137.274C115.633 136.752 115.355 136.186 114.833 136.007C114.511 135.897 114.192 135.786 113.876 135.675C113.356 135.493 112.787 135.765 112.603 136.284C111.64 135.938 110.708 135.59 109.805 135.24C110.006 134.728 109.756 134.149 109.245 133.945C108.92 133.816 108.599 133.686 108.282 133.556C107.773 133.346 107.19 133.588 106.979 134.095C106.02 133.689 105.1 133.28 104.222 132.868C104.459 132.373 104.252 131.778 103.758 131.538C103.45 131.388 103.148 131.238 102.852 131.088C102.362 130.839 101.764 131.033 101.512 131.52C100.581 131.027 99.7071 130.531 98.8926 130.032C99.1842 129.57 99.0511 128.958 98.5917 128.66C98.3236 128.485 98.0634 128.311 97.8109 128.137C97.361 127.826 96.7459 127.934 96.4291 128.378C95.5543 127.73 94.7781 127.076 94.1029 126.418C94.49 126.044 94.5121 125.428 94.1476 125.027C93.9336 124.791 93.7348 124.557 93.551 124.323C93.2179 123.9 92.612 123.818 92.1797 124.131C91.5874 123.231 91.1831 122.322 90.9727 121.407C91.4853 121.329 91.8586 120.867 91.8183 120.342C91.8076 120.202 91.8022 120.062 91.8022 119.922C91.8022 119.782 91.8076 119.641 91.8183 119.501C91.8586 118.976 91.4853 118.515 90.9727 118.437C91.1831 117.521 91.5874 116.613 92.1797 115.712C92.612 116.025 93.2179 115.943 93.551 115.52C93.7348 115.287 93.9336 115.052 94.1476 114.817C94.5121 114.416 94.4899 113.799 94.1029 113.425C94.7781 112.767 95.5543 112.114 96.4291 111.466C96.7459 111.909 97.361 112.018 97.8109 111.707C98.0634 111.532 98.3236 111.358 98.5917 111.184C99.0511 110.885 99.1842 110.274 98.8926 109.812C99.707 109.312 100.581 108.816 101.512 108.323C101.764 108.81 102.362 109.004 102.852 108.755C103.148 108.605 103.45 108.455 103.757 108.306C104.252 108.065 104.459 107.471 104.222 106.976C105.1 106.564 106.02 106.155 106.979 105.748C107.19 106.256 107.773 106.497 108.282 106.288C108.599 106.158 108.92 106.028 109.245 105.898C109.756 105.694 110.006 105.115 109.805 104.603C110.708 104.253 111.64 103.905 112.603 103.559C112.787 104.078 113.356 104.351 113.876 104.168C114.192 104.057 114.511 103.947 114.833 103.836C115.354 103.658 115.633 103.091 115.456 102.569C116.381 102.259 117.33 101.951 118.303 101.645C118.467 102.171 119.026 102.465 119.553 102.303C119.879 102.202 120.208 102.101 120.539 102.001C121.067 101.842 121.366 101.285 121.208 100.757C122.138 100.481 123.087 100.206 124.056 99.9334C124.204 100.464 124.754 100.775 125.286 100.628C125.613 100.538 125.943 100.447 126.274 100.357C126.806 100.212 127.121 99.6636 126.977 99.1313C127.92 98.8787 128.88 98.6276 129.856 98.3781C129.992 98.9127 130.535 99.2367 131.07 99.102C131.395 99.0202 131.722 98.9386 132.05 98.8571C132.586 98.7243 132.912 98.183 132.78 97.6475C133.742 97.4125 134.718 97.179 135.708 96.947C135.833 97.4843 136.37 97.819 136.907 97.6947C137.229 97.6204 137.553 97.5462 137.877 97.4721C138.415 97.3495 138.752 96.8142 138.631 96.2762C139.612 96.0553 140.608 95.8358 141.616 95.6177C141.732 96.1571 142.263 96.5008 142.803 96.3855C143.121 96.3175 143.441 96.2496 143.762 96.1819C144.302 96.068 144.647 95.5382 144.534 94.9982C145.51 94.7948 146.497 94.5926 147.496 94.3917C147.605 94.9328 148.131 95.2841 148.672 95.1765C149.006 95.1102 149.341 95.044 149.677 94.978C150.219 94.8716 150.572 94.3467 150.466 93.8051C151.427 93.6184 152.399 93.4329 153.38 93.2486C153.482 93.791 154.003 94.149 154.546 94.0482C154.874 93.9872 155.204 93.9264 155.534 93.8657C156.077 93.766 156.436 93.2453 156.337 92.7024C157.326 92.5227 158.324 92.3441 159.332 92.1667C159.428 92.7103 159.945 93.0742 160.489 92.9794C160.812 92.9232 161.136 92.867 161.461 92.811C162.005 92.7173 162.37 92.2005 162.277 91.6565C163.262 91.4884 164.256 91.3214 165.259 91.1555C165.349 91.7001 165.863 92.0691 166.407 91.9799C166.742 91.9251 167.077 91.8704 167.414 91.8159C167.959 91.7275 168.329 91.2144 168.241 90.6695C169.215 90.5131 170.196 90.3578 171.185 90.2036C171.27 90.749 171.78 91.1228 172.326 91.0385C172.654 90.9877 172.984 90.9371 173.314 90.8866C173.86 90.8031 174.234 90.2932 174.151 89.7475C175.157 89.5951 176.17 89.4438 177.191 89.2935C177.271 89.8397 177.778 90.2178 178.325 90.1381C178.648 90.091 178.972 90.0439 179.297 89.997C179.843 89.918 180.222 89.4112 180.143 88.8649C181.121 88.7249 182.105 88.5859 183.096 88.4478C183.172 88.9946 183.677 89.3766 184.224 89.3011C184.556 89.2553 184.888 89.2095 185.222 89.1639C185.769 89.0891 186.152 88.5852 186.077 88.0382C187.074 87.9031 188.078 87.7689 189.087 87.6358C189.159 88.1831 189.661 88.5687 190.208 88.4971C190.535 88.4545 190.862 88.4119 191.19 88.3694C191.737 88.2985 192.124 87.7972 192.053 87.2498C193.043 87.1226 194.039 86.9964 195.041 86.8712C195.109 87.419 195.608 87.8079 196.156 87.74C196.491 87.6986 196.825 87.6573 197.161 87.6161C197.709 87.5487 198.099 87.0501 198.032 86.5021C199.023 86.3814 200.02 86.2616 201.022 86.1428C201.086 86.6911 201.583 87.0832 202.131 87.0187C202.46 86.9801 202.789 86.9415 203.119 86.9031C203.668 86.8392 204.06 86.3429 203.997 85.7945C204.994 85.6793 205.997 85.5649 207.005 85.4515C207.066 86.0001 207.561 86.3952 208.109 86.334C208.445 86.2965 208.781 86.2592 209.117 86.222C209.666 86.1613 210.062 85.6673 210.002 85.1186C210.99 85.0102 211.983 84.9027 212.981 84.7961C213.04 85.3451 213.532 85.7429 214.081 85.6847C214.411 85.6498 214.741 85.6149 215.072 85.5802C215.621 85.5225 216.02 85.0307 215.962 84.4817C216.964 84.3774 217.97 84.2741 218.98 84.1716C219.036 84.7209 219.526 85.1213 220.075 85.0661C220.411 85.0323 220.748 84.9986 221.085 84.9651C221.634 84.9103 222.035 84.4206 221.981 83.8712C222.969 83.7736 223.962 83.6768 224.959 83.5808C225.011 84.1304 225.5 84.5333 226.049 84.4809C226.38 84.4493 226.711 84.4179 227.043 84.3865C227.592 84.3345 227.996 83.8468 227.944 83.2972C228.947 83.2031 229.953 83.11 230.964 83.0177C231.014 83.5675 231.5 83.9728 232.05 83.923C232.386 83.8926 232.723 83.8623 233.06 83.832C233.61 83.7827 234.015 83.297 233.966 82.7471C234.957 82.6589 235.952 82.5716 236.95 82.4851C236.998 83.0352 237.482 83.4428 238.032 83.3956C238.363 83.3671 238.694 83.3388 239.026 83.3106C239.576 83.2638 239.984 82.7799 239.938 82.2298C240.94 82.1453 241.946 82.0616 242.955 81.9787C243 82.529 243.482 82.9388 244.033 82.894C244.369 82.8667 244.705 82.8395 245.041 82.8123C245.592 82.768 246.002 82.2859 245.958 81.7356C246.953 81.6561 247.952 81.5774 248.954 81.4995C248.996 82.05 249.477 82.4618 250.027 82.4194C250.358 82.3939 250.69 82.3686 251.021 82.3432C251.572 82.3012 251.984 81.8209 251.942 81.2704C252.943 81.1948 253.946 81.1199 254.953 81.0459C254.994 81.5966 255.473 82.0104 256.023 81.9703C256.359 81.9459 256.694 81.9216 257.03 81.8973C257.581 81.8576 257.995 81.379 257.956 80.8283C258.957 80.7568 259.961 80.6861 260.968 80.6162C261.006 81.167 261.483 81.5828 262.034 81.5449C262.365 81.5221 262.696 81.4995 263.027 81.4769C263.578 81.4394 263.994 80.9625 263.957 80.4116C264.955 80.3443 265.956 80.2778 266.96 80.2121C266.995 80.763 267.471 81.1807 268.022 81.1449C268.357 81.1233 268.692 81.1016 269.027 81.0801C269.578 81.0447 269.996 80.5694 269.961 80.0184C270.969 79.9544 271.979 79.8912 272.992 79.8287C273.026 80.3798 273.5 80.7993 274.051 80.7657C274.382 80.7455 274.712 80.7255 275.043 80.7055C275.594 80.6722 276.014 80.1985 275.981 79.6473C276.976 79.5879 277.974 79.5292 278.974 79.4713C279.006 80.0225 279.479 80.4437 280.03 80.4121C280.364 80.393 280.698 80.3739 281.032 80.355C281.584 80.3237 282.005 79.8516 281.974 79.3003C282.987 79.2435 284.002 79.1875 285.02 79.1323C285.049 79.6837 285.52 80.1066 286.072 80.077L287.07 80.0238C287.621 79.9946 288.044 79.5239 288.015 78.9726C289.007 78.9205 290.001 78.8692 290.998 78.8187C291.026 79.3702 291.495 79.7948 292.047 79.7671L293.047 79.7173C293.599 79.69 294.024 79.2208 293.996 78.6693C295.004 78.62 296.014 78.5714 297.027 78.5237C297.053 79.0752 297.521 79.5014 298.072 79.4757L299.082 79.4289C299.634 79.4035 300.06 78.9358 300.035 78.3842C301.031 78.3389 302.03 78.2943 303.031 78.2505C303.055 78.8021 303.522 79.2299 304.073 79.2061L305.071 79.1632C305.623 79.1397 306.051 78.6734 306.028 78.1218C307.031 78.0795 308.036 78.038 309.043 77.9973C309.066 78.549 309.531 78.9783 310.083 78.9563L311.089 78.9164C311.641 78.8947 312.071 78.4299 312.049 77.8782C313.055 77.8391 314.063 77.8009 315.073 77.7633C315.094 78.3151 315.557 78.746 316.109 78.7258L317.105 78.6896C317.657 78.6697 318.088 78.2063 318.068 77.6545C319.067 77.619 320.068 77.5842 321.07 77.5502C321.089 78.1021 321.551 78.5345 322.103 78.516L323.106 78.4828C323.658 78.4646 324.091 78.0026 324.073 77.4507C325.085 77.418 326.098 77.3861 327.113 77.3549C327.13 77.9068 327.591 78.3407 328.143 78.324L329.148 78.2939C329.7 78.2775 330.134 77.8169 330.118 77.2649C331.112 77.236 332.109 77.2077 333.107 77.1801C333.122 77.7321 333.582 78.1674 334.133 78.1524L335.134 78.1256C335.686 78.1109 336.122 77.6516 336.107 77.0997C337.114 77.0734 338.122 77.048 339.131 77.0232C339.145 77.5752 339.603 78.012 340.155 77.9987L341.163 77.9748C341.715 77.9619 342.152 77.5039 342.139 76.9519C343.142 76.9289 344.147 76.9066 345.153 76.885C345.164 77.4371 345.621 77.8752 346.173 77.8636L347.172 77.843C347.724 77.8317 348.162 77.3751 348.151 76.8231C349.153 76.8031 350.156 76.7839 351.16 76.7654C351.171 77.3175 351.626 77.757 352.178 77.7471L353.183 77.7294C353.735 77.7198 354.175 77.2645 354.165 76.7124C355.177 76.6953 356.19 76.6789 357.205 76.6633C357.214 77.2154 357.668 77.6563 358.22 77.6481L359.218 77.6335C359.77 77.6255 360.211 77.1715 360.203 76.6194C361.201 76.6056 362.2 76.5924 363.2 76.58C363.207 77.1321 363.66 77.5743 364.212 77.5677L365.213 77.556C365.765 77.5497 366.208 77.0971 366.202 76.5449C367.208 76.5339 368.217 76.5236 369.226 76.5141C369.231 77.0662 369.683 77.5097 370.235 77.5048L371.242 77.496C371.794 77.4913 372.238 77.0399 372.234 76.4878C373.237 76.4798 374.242 76.4725 375.248 76.4659C375.252 77.018 375.702 77.4629 376.254 77.4596L377.253 77.4538C377.805 77.4507 378.251 77.0006 378.248 76.4485C379.25 76.4434 380.253 76.439 381.258 76.4354C381.26 76.9875 381.709 77.4337 382.261 77.432L383.265 77.4291C383.818 77.4276 384.264 76.9788 384.263 76.4266C385.273 76.4244 386.285 76.423 387.298 76.4222C387.298 76.9744 387.746 77.4219 388.298 77.4218L388.802 77.4217L389.307 77.4218C389.859 77.4219 390.307 76.9744 390.307 76.4222C391.32 76.423 392.331 76.4244 393.342 76.4266C393.34 76.9788 393.787 77.4276 394.339 77.4291L395.343 77.432C395.895 77.4337 396.344 76.9875 396.346 76.4354C397.351 76.439 398.355 76.4434 399.357 76.4485C399.354 77.0006 399.799 77.4507 400.351 77.4538L401.35 77.4596C401.903 77.4629 402.353 77.018 402.356 76.4659C403.363 76.4725 404.367 76.4798 405.371 76.4878C405.366 77.0399 405.81 77.4913 406.362 77.496L407.369 77.5048C407.922 77.5097 408.373 77.0662 408.378 76.5141C409.388 76.5236 410.396 76.5339 411.403 76.5449C411.397 77.0971 411.839 77.5497 412.391 77.556L413.393 77.5677C413.945 77.5743 414.398 77.1321 414.405 76.58C415.405 76.5924 416.404 76.6056 417.401 76.6194C417.393 77.1715 417.835 77.6255 418.387 77.6335L419.384 77.6481C419.937 77.6563 420.391 77.2154 420.399 76.6633C421.414 76.6789 422.427 76.6953 423.439 76.7124C423.43 77.2645 423.87 77.7198 424.422 77.7294L425.426 77.7471C425.978 77.757 426.434 77.3175 426.444 76.7654C427.449 76.7839 428.452 76.8031 429.453 76.8231C429.442 77.3751 429.881 77.8317 430.433 77.843L431.431 77.8636C431.983 77.8752 432.44 77.4371 432.452 76.885C433.458 76.9066 434.462 76.9289 435.465 76.9519C435.453 77.5039 435.89 77.9619 436.442 77.9748L437.449 77.9987C438.001 78.012 438.46 77.5752 438.473 77.0232C439.483 77.048 440.491 77.0734 441.497 77.0997C441.483 77.6516 441.918 78.1109 442.47 78.1256L443.471 78.1524C444.023 78.1674 444.483 77.7321 444.498 77.1801C445.496 77.2077 446.492 77.2359 447.487 77.2649C447.471 77.8169 447.905 78.2775 448.457 78.2939L449.461 78.324C450.013 78.3406 450.474 77.9068 450.491 77.3549C451.506 77.3861 452.52 77.418 453.531 77.4507C453.513 78.0026 453.946 78.4646 454.498 78.4828L455.501 78.516C456.053 78.5345 456.516 78.1021 456.534 77.5502C457.537 77.5842 458.538 77.619 459.536 77.6545C459.516 78.2063 459.948 78.6697 460.5 78.6896L461.495 78.7258C462.047 78.746 462.511 78.3151 462.531 77.7633C463.541 77.8009 464.549 77.8391 465.555 77.8782C465.534 78.4299 465.964 78.8947 466.515 78.9164L467.522 78.9563C468.074 78.9783 468.539 78.549 468.561 77.9973C469.568 78.038 470.574 78.0795 471.577 78.1218C471.553 78.6734 471.982 79.1397 472.533 79.1632L473.531 79.2061C474.083 79.2299 474.549 78.8021 474.573 78.2505C475.574 78.2943 476.573 78.3389 477.569 78.3842C477.544 78.9358 477.971 79.4035 478.522 79.4289L479.532 79.4757C480.084 79.5014 480.552 79.0752 480.578 78.5236C481.59 78.5714 482.6 78.62 483.608 78.6693C483.581 79.2208 484.006 79.69 484.557 79.7173L485.558 79.7671C486.109 79.7948 486.579 79.3702 486.606 78.8187C487.603 78.8692 488.597 78.9205 489.589 78.9725C489.56 79.5239 489.983 79.9946 490.535 80.0238L491.533 80.077C492.084 80.1066 492.555 79.6837 492.585 79.1323C493.602 79.1875 494.618 79.2435 495.63 79.3003C495.599 79.8516 496.021 80.3237 496.572 80.355C496.906 80.3739 497.241 80.393 497.575 80.4121C498.126 80.4437 498.598 80.0225 498.63 79.4713C499.63 79.5292 500.628 79.5879 501.623 79.6473C501.59 80.1985 502.01 80.6722 502.561 80.7055C502.892 80.7254 503.223 80.7455 503.553 80.7657C504.104 80.7993 504.578 80.3798 504.612 79.8287C505.625 79.8912 506.636 79.9544 507.643 80.0184C507.608 80.5694 508.026 81.0447 508.577 81.0801L509.052 81.1107L509.582 81.1449C510.133 81.1807 510.609 80.763 510.645 80.2121C511.649 80.2778 512.65 80.3443 513.648 80.4116C513.61 80.9625 514.026 81.4394 514.577 81.4769C514.909 81.4995 515.24 81.5221 515.57 81.5449C516.121 81.5828 516.598 81.167 516.637 80.6162C517.644 80.6861 518.648 80.7568 519.649 80.8283C519.609 81.379 520.023 81.8576 520.574 81.8973C520.91 81.9216 521.246 81.9459 521.581 81.9703C522.132 82.0104 522.611 81.5966 522.651 81.0459C523.658 81.1199 524.662 81.1948 525.662 81.2704C525.62 81.8209 526.033 82.3012 526.583 82.3432C526.915 82.3685 527.246 82.3939 527.577 82.4194C528.128 82.4618 528.608 82.05 528.651 81.4995C529.653 81.5774 530.651 81.6561 531.647 81.7356C531.602 82.2859 532.013 82.768 532.563 82.8123C532.9 82.8394 533.236 82.8667 533.572 82.894C534.122 82.9388 534.604 82.529 534.649 81.9787C535.659 82.0616 536.665 82.1453 537.667 82.2298C537.62 82.7799 538.028 83.2638 538.578 83.3106C538.91 83.3388 539.241 83.3671 539.572 83.3955C540.122 83.4428 540.607 83.0352 540.654 82.4851C541.653 82.5716 542.647 82.6589 543.638 82.7471C543.589 83.297 543.995 83.7827 544.545 83.832C544.882 83.8623 545.218 83.8926 545.554 83.923C546.104 83.9728 546.591 83.5675 546.64 83.0176C547.651 83.11 548.658 83.2031 549.66 83.2971C549.609 83.8468 550.012 84.3345 550.562 84.3865C550.893 84.4178 551.225 84.4493 551.555 84.4809C552.105 84.5333 552.593 84.1304 552.646 83.5808C553.643 83.6768 554.635 83.7736 555.624 83.8712C555.569 84.4206 555.97 84.9103 556.52 84.965C556.857 84.9986 557.193 85.0323 557.529 85.0661C558.079 85.1213 558.569 84.7209 558.624 84.1716C559.635 84.274 560.641 84.3774 561.642 84.4816C561.585 85.0307 561.983 85.5225 562.532 85.5802C562.863 85.6149 563.194 85.6498 563.523 85.6847C564.073 85.7429 564.565 85.345 564.623 84.7961C565.621 84.9027 566.614 85.0102 567.603 85.1186C567.542 85.6673 567.938 86.1613 568.487 86.222C568.686 86.244 568.885 86.2661 569.084 86.2881L569.495 86.334C570.044 86.3952 570.538 86.0001 570.6 85.4515C571.608 85.5649 572.61 85.6793 573.608 85.7945C573.544 86.3429 573.937 86.8391 574.485 86.9031C574.815 86.9415 575.144 86.98 575.473 87.0187C576.021 87.0832 576.518 86.691 576.583 86.1428C577.585 86.2616 578.582 86.3814 579.573 86.5021C579.506 87.0501 579.895 87.5487 580.443 87.616C580.779 87.6573 581.114 87.6986 581.448 87.74C581.996 87.8079 582.495 87.419 582.564 86.8712C583.565 86.9964 584.561 87.1226 585.551 87.2497C585.481 87.7972 585.867 88.2984 586.414 88.3694C586.742 88.4119 587.07 88.4544 587.396 88.4971C587.944 88.5687 588.445 88.1831 588.517 87.6358C589.527 87.7689 590.53 87.9031 591.527 88.0382C591.453 88.5851 591.835 89.0891 592.382 89.1639C592.716 89.2095 593.049 89.2552 593.381 89.3011C593.928 89.3766 594.432 88.9946 594.508 88.4478C595.499 88.5859 596.483 88.7249 597.461 88.8649C597.382 89.4112 597.761 89.918 598.308 89.997C598.633 90.0439 598.957 90.0909 599.28 90.1381C599.826 90.2178 600.334 89.8397 600.414 89.2935C601.434 89.4438 602.447 89.5951 603.453 89.7475C603.37 90.2932 603.745 90.8031 604.29 90.8866C604.621 90.9371 604.95 90.9877 605.279 91.0385C605.824 91.1227 606.335 90.749 606.419 90.2036C607.408 90.3578 608.39 90.5131 609.364 90.6695C609.276 91.2143 609.646 91.7275 610.191 91.8159C610.527 91.8704 610.862 91.9251 611.197 91.9799C611.742 92.0691 612.256 91.7001 612.345 91.1555C613.348 91.3214 614.342 91.4884 615.328 91.6565C615.234 92.2005 615.599 92.7173 616.143 92.811C616.468 92.867 616.792 92.9232 617.115 92.9794C617.659 93.0741 618.177 92.7103 618.272 92.1667C619.28 92.3441 620.279 92.5227 621.268 92.7024C621.168 93.2452 621.528 93.766 622.071 93.8657C622.401 93.9264 622.73 93.9872 623.058 94.0482C623.601 94.149 624.123 93.791 624.224 93.2486C625.205 93.4329 626.177 93.6184 627.139 93.8051C627.033 94.3466 627.386 94.8716 627.927 94.978C628.264 95.044 628.599 95.1102 628.932 95.1765C629.474 95.2841 630 94.9328 630.108 94.3917C631.107 94.5926 632.095 94.7947 633.071 94.9982C632.957 95.5382 633.303 96.068 633.843 96.1819C634.164 96.2496 634.483 96.3175 634.802 96.3855C635.341 96.5007 635.872 96.1571 635.988 95.6177C636.997 95.8358 637.992 96.0553 638.974 96.2762C638.852 96.8142 639.189 97.3494 639.727 97.4721C640.052 97.5462 640.375 97.6204 640.697 97.6947C641.235 97.8189 641.771 97.4842 641.896 96.947C642.887 97.179 643.863 97.4125 644.824 97.6474C644.692 98.1829 645.019 98.7243 645.554 98.8571C645.883 98.9386 646.21 99.0202 646.535 99.102C647.07 99.2367 647.612 98.9127 647.748 98.3781C648.724 98.6276 649.684 98.8787 650.627 99.1313C650.484 99.6635 650.798 100.212 651.33 100.357C651.662 100.447 651.991 100.538 652.319 100.628C652.85 100.775 653.4 100.464 653.549 99.9334C654.517 100.206 655.467 100.481 656.397 100.757C656.239 101.285 656.537 101.842 657.065 102.001C657.397 102.101 657.725 102.202 658.052 102.303C658.578 102.465 659.137 102.171 659.301 101.645C660.274 101.951 661.223 102.259 662.148 102.569C661.972 103.091 662.25 103.658 662.771 103.836C663.094 103.947 663.413 104.057 663.728 104.168C664.248 104.351 664.818 104.078 665.002 103.559C665.964 103.905 666.897 104.253 667.799 104.603C667.598 105.115 667.848 105.694 668.36 105.898C668.685 106.028 669.006 106.158 669.323 106.288C669.832 106.497 670.414 106.256 670.626 105.748C671.585 106.155 672.504 106.564 673.382 106.976C673.146 107.471 673.353 108.065 673.847 108.306C674.154 108.455 674.456 108.605 674.752 108.755C675.242 109.004 675.841 108.81 676.093 108.323C677.024 108.816 677.897 109.312 678.712 109.812C678.42 110.274 678.553 110.885 679.013 111.184C679.281 111.358 679.541 111.532 679.794 111.707C680.244 112.018 680.859 111.909 681.175 111.466C682.05 112.114 682.826 112.767 683.502 113.425C683.115 113.799 683.092 114.416 683.457 114.817C683.671 115.052 683.87 115.287 684.053 115.52C684.387 115.943 684.992 116.025 685.425 115.712Z" stroke="#A4A4C5" stroke-opacity="0.2" stroke-width="2" stroke-linecap="round" stroke-dasharray="1 5"/>
</svg>
