<svg width="838" height="603" viewBox="0 0 838 603" fill="none" xmlns="http://www.w3.org/2000/svg">
<g filter="url(#filter0_f)">
<rect x="60" y="100" width="718" height="58" fill="#00D1FF" fill-opacity="0.6"/>
</g>
<path d="M93.1 126V32.14H111.04V69.58H136.39V32.14H154.33V126H136.39V85.44H111.04V126H93.1ZM171.533 126V32.14H220.673V48H189.473V69.58H213.263V85.44H189.473V110.14H221.973V126H171.533ZM254.473 72.96H263.703C267.689 72.96 270.809 71.9633 273.063 69.97C275.316 67.89 276.443 64.5533 276.443 59.96C276.443 55.3667 275.316 52.0733 273.063 50.08C270.809 48 267.689 46.96 263.703 46.96H254.473V72.96ZM278.653 126L263.053 87.78H254.473V126H236.533V32.14H262.533C273.366 32.14 281.383 34.61 286.583 39.55C291.783 44.4033 294.383 51.2933 294.383 60.22C294.383 66.1133 293.256 71.0967 291.003 75.17C288.836 79.2433 285.239 82.2333 280.213 84.14L297.893 126H278.653ZM325.149 98.18C325.149 103.38 326.189 106.89 328.269 108.71C330.349 110.53 333.209 111.44 336.849 111.44C340.489 111.44 343.349 110.53 345.429 108.71C347.509 106.89 348.549 103.38 348.549 98.18V59.96C348.549 54.76 347.509 51.25 345.429 49.43C343.349 47.61 340.489 46.7 336.849 46.7C333.209 46.7 330.349 47.61 328.269 49.43C326.189 51.25 325.149 54.76 325.149 59.96V98.18ZM307.209 62.3C307.209 56.4933 307.946 51.5967 309.419 47.61C310.892 43.6233 312.929 40.4167 315.529 37.99C318.129 35.4767 321.249 33.6567 324.889 32.53C328.529 31.4033 332.516 30.84 336.849 30.84C341.182 30.84 345.169 31.4033 348.809 32.53C352.449 33.6567 355.569 35.4767 358.169 37.99C360.769 40.4167 362.806 43.6233 364.279 47.61C365.752 51.5967 366.489 56.4933 366.489 62.3V95.84C366.489 101.647 365.752 106.543 364.279 110.53C362.806 114.517 360.769 117.767 358.169 120.28C355.569 122.707 352.449 124.483 348.809 125.61C345.169 126.737 341.182 127.3 336.849 127.3C332.516 127.3 328.529 126.737 324.889 125.61C321.249 124.483 318.129 122.707 315.529 120.28C312.929 117.767 310.892 114.517 309.419 110.53C307.946 106.543 307.209 101.647 307.209 95.84V62.3ZM382.045 126V32.14H407.135L423.385 93.76H423.645L439.895 32.14H464.985V126H449.645V52.16H449.385L430.275 126H416.755L397.645 52.16H397.385V126H382.045ZM501.427 90.38H519.237L510.527 52.42H510.267L501.427 90.38ZM475.817 126L499.087 32.14H522.097L544.717 126H527.557L523.007 106.24H498.177L493.107 126H475.817ZM554.423 126V32.14H572.363V70.88H572.623L595.893 32.14H615.523L591.343 69.97L618.253 126H598.103L579.383 86.61L572.363 97.27V126H554.423ZM626.66 126V32.14H675.8V48H644.6V69.58H668.39V85.44H644.6V110.14H677.1V126H626.66ZM709.6 72.96H718.83C722.816 72.96 725.936 71.9633 728.19 69.97C730.443 67.89 731.57 64.5533 731.57 59.96C731.57 55.3667 730.443 52.0733 728.19 50.08C725.936 48 722.816 46.96 718.83 46.96H709.6V72.96ZM733.78 126L718.18 87.78H709.6V126H691.66V32.14H717.66C728.493 32.14 736.51 34.61 741.71 39.55C746.91 44.4033 749.51 51.2933 749.51 60.22C749.51 66.1133 748.383 71.0967 746.13 75.17C743.963 79.2433 740.366 82.2333 735.34 84.14L753.02 126H733.78Z" fill="white"/>
<path d="M85.7045 209.176H96.392V238H103.688V209.176H114.375V203.091H85.7045V209.176ZM126.222 222.864C126.239 219.489 128.301 217.511 131.267 217.511C134.216 217.511 135.955 219.403 135.938 222.625V238H143.199V221.33C143.216 215.193 139.602 211.477 134.148 211.477C130.176 211.477 127.517 213.352 126.324 216.438H126.017V203.091H118.96V238H126.222V222.864ZM160.845 238.511C167.322 238.511 171.686 235.358 172.709 230.5L165.993 230.057C165.26 232.051 163.385 233.091 160.964 233.091C157.334 233.091 155.033 230.688 155.033 226.784V226.767H172.862V224.773C172.862 215.875 167.476 211.477 160.555 211.477C152.851 211.477 147.857 216.949 147.857 225.028C147.857 233.33 152.783 238.511 160.845 238.511ZM155.033 222.267C155.186 219.284 157.453 216.898 160.675 216.898C163.828 216.898 166.01 219.148 166.027 222.267H155.033ZM196.705 238H203.898L210.528 215.176H210.801L217.449 238H224.642L234.631 203.091H226.568L220.79 227.398H220.483L214.125 203.091H207.222L200.847 227.347H200.557L194.778 203.091H186.716L196.705 238ZM247.462 238.511C255.405 238.511 260.348 233.074 260.348 225.011C260.348 216.898 255.405 211.477 247.462 211.477C239.518 211.477 234.575 216.898 234.575 225.011C234.575 233.074 239.518 238.511 247.462 238.511ZM247.496 232.886C243.831 232.886 241.956 229.528 241.956 224.96C241.956 220.392 243.831 217.017 247.496 217.017C251.092 217.017 252.967 220.392 252.967 224.96C252.967 229.528 251.092 232.886 247.496 232.886ZM265.07 238H272.331V223.188C272.331 219.966 274.683 217.75 277.888 217.75C278.893 217.75 280.274 217.92 280.956 218.142V211.699C280.308 211.545 279.405 211.443 278.672 211.443C275.74 211.443 273.337 213.148 272.382 216.386H272.109V211.818H265.07V238ZM291.972 203.091H284.71V238H291.972V203.091ZM307.436 238.426C311.663 238.426 313.862 235.989 314.868 233.807H315.175V238H322.334V203.091H315.089V216.216H314.868C313.896 214.085 311.8 211.477 307.419 211.477C301.675 211.477 296.817 215.943 296.817 224.943C296.817 233.705 301.47 238.426 307.436 238.426ZM309.737 232.648C306.175 232.648 304.232 229.477 304.232 224.909C304.232 220.375 306.141 217.256 309.737 217.256C313.266 217.256 315.243 220.239 315.243 224.909C315.243 229.58 313.232 232.648 309.737 232.648ZM334.389 203.091H328.935V206.807C328.935 209.688 327.912 211.784 326.77 213.591L329.974 215.483C332.378 213.472 334.389 209.892 334.389 206.773V203.091ZM357.729 219.284C357.081 214.46 353.195 211.477 346.581 211.477C339.882 211.477 335.467 214.58 335.484 219.625C335.467 223.545 337.939 226.085 343.053 227.108L347.587 228.011C349.871 228.472 350.911 229.307 350.945 230.619C350.911 232.17 349.223 233.278 346.683 233.278C344.092 233.278 342.371 232.17 341.928 230.04L334.786 230.415C335.467 235.426 339.729 238.511 346.666 238.511C353.45 238.511 358.308 235.051 358.325 229.886C358.308 226.102 355.837 223.835 350.757 222.795L346.018 221.841C343.581 221.312 342.678 220.477 342.695 219.216C342.678 217.648 344.45 216.625 346.7 216.625C349.223 216.625 350.723 218.006 351.081 219.693L357.729 219.284ZM403.342 203.091H395.996V225.045H395.689L380.621 203.091H374.143V238H381.524V216.028H381.78L396.967 238H403.342V203.091ZM421.236 238.511C427.713 238.511 432.077 235.358 433.099 230.5L426.384 230.057C425.651 232.051 423.776 233.091 421.355 233.091C417.724 233.091 415.423 230.688 415.423 226.784V226.767H433.253V224.773C433.253 215.875 427.866 211.477 420.946 211.477C413.241 211.477 408.247 216.949 408.247 225.028C408.247 233.33 413.173 238.511 421.236 238.511ZM415.423 222.267C415.577 219.284 417.844 216.898 421.065 216.898C424.219 216.898 426.401 219.148 426.418 222.267H415.423ZM442.969 238H450.639L455.139 221.534H455.463L459.963 238H467.651L474.759 211.818H467.429L463.44 229.307H463.219L458.923 211.818H451.713L447.486 229.409H447.247L443.19 211.818H435.844L442.969 238ZM489.908 238.511C496.385 238.511 500.749 235.358 501.771 230.5L495.055 230.057C494.322 232.051 492.447 233.091 490.027 233.091C486.396 233.091 484.095 230.688 484.095 226.784V226.767H501.925V224.773C501.925 215.875 496.538 211.477 489.618 211.477C481.913 211.477 476.919 216.949 476.919 225.028C476.919 233.33 481.845 238.511 489.908 238.511ZM484.095 222.267C484.249 219.284 486.516 216.898 489.737 216.898C492.891 216.898 495.072 219.148 495.089 222.267H484.095ZM528.447 219.284C527.8 214.46 523.913 211.477 517.3 211.477C510.601 211.477 506.186 214.58 506.203 219.625C506.186 223.545 508.658 226.085 513.771 227.108L518.305 228.011C520.589 228.472 521.629 229.307 521.663 230.619C521.629 232.17 519.942 233.278 517.402 233.278C514.811 233.278 513.089 232.17 512.646 230.04L505.504 230.415C506.186 235.426 510.447 238.511 517.385 238.511C524.169 238.511 529.027 235.051 529.044 229.886C529.027 226.102 526.555 223.835 521.476 222.795L516.737 221.841C514.3 221.312 513.396 220.477 513.413 219.216C513.396 217.648 515.169 216.625 517.419 216.625C519.942 216.625 521.442 218.006 521.8 219.693L528.447 219.284ZM547.543 211.818H542.616V205.545H535.355V211.818H531.776V217.273H535.355V230.909C535.321 236.04 538.815 238.58 544.082 238.358C545.957 238.29 547.287 237.915 548.02 237.676L546.878 232.273C546.52 232.341 545.753 232.511 545.071 232.511C543.622 232.511 542.616 231.966 542.616 229.955V217.273H547.543V211.818ZM563.518 238H570.899V223.58H585.882V238H593.246V203.091H585.882V217.494H570.899V203.091H563.518V238ZM611.126 238.511C617.604 238.511 621.967 235.358 622.99 230.5L616.274 230.057C615.541 232.051 613.666 233.091 611.246 233.091C607.615 233.091 605.314 230.688 605.314 226.784V226.767H623.143V224.773C623.143 215.875 617.757 211.477 610.837 211.477C603.132 211.477 598.138 216.949 598.138 225.028C598.138 233.33 603.064 238.511 611.126 238.511ZM605.314 222.267C605.467 219.284 607.734 216.898 610.956 216.898C614.109 216.898 616.291 219.148 616.308 222.267H605.314ZM627.882 238H635.143V223.188C635.143 219.966 637.496 217.75 640.7 217.75C641.706 217.75 643.087 217.92 643.768 218.142V211.699C643.121 211.545 642.217 211.443 641.484 211.443C638.553 211.443 636.149 213.148 635.195 216.386H634.922V211.818H627.882V238ZM658.134 238.511C666.077 238.511 671.02 233.074 671.02 225.011C671.02 216.898 666.077 211.477 658.134 211.477C650.19 211.477 645.247 216.898 645.247 225.011C645.247 233.074 650.19 238.511 658.134 238.511ZM658.168 232.886C654.503 232.886 652.628 229.528 652.628 224.96C652.628 220.392 654.503 217.017 658.168 217.017C661.764 217.017 663.639 220.392 663.639 224.96C663.639 229.528 661.764 232.886 658.168 232.886ZM687.673 238.511C694.151 238.511 698.514 235.358 699.537 230.5L692.821 230.057C692.088 232.051 690.213 233.091 687.793 233.091C684.162 233.091 681.861 230.688 681.861 226.784V226.767H699.69V224.773C699.69 215.875 694.304 211.477 687.384 211.477C679.679 211.477 674.685 216.949 674.685 225.028C674.685 233.33 679.611 238.511 687.673 238.511ZM681.861 222.267C682.014 219.284 684.281 216.898 687.503 216.898C690.656 216.898 692.838 219.148 692.855 222.267H681.861ZM726.213 219.284C725.565 214.46 721.679 211.477 715.065 211.477C708.366 211.477 703.952 214.58 703.969 219.625C703.952 223.545 706.423 226.085 711.537 227.108L716.071 228.011C718.355 228.472 719.395 229.307 719.429 230.619C719.395 232.17 717.707 233.278 715.168 233.278C712.577 233.278 710.855 232.17 710.412 230.04L703.27 230.415C703.952 235.426 708.213 238.511 715.151 238.511C721.935 238.511 726.793 235.051 726.81 229.886C726.793 226.102 724.321 223.835 719.241 222.795L714.503 221.841C712.065 221.312 711.162 220.477 711.179 219.216C711.162 217.648 712.935 216.625 715.185 216.625C717.707 216.625 719.207 218.006 719.565 219.693L726.213 219.284ZM87.0682 288H90.4205V266.182H87.0682V288ZM88.7727 262.545C90.0795 262.545 91.1591 261.523 91.1591 260.273C91.1591 259.023 90.0795 258 88.7727 258C87.4659 258 86.3864 259.023 86.3864 260.273C86.3864 261.523 87.4659 262.545 88.7727 262.545ZM99.9126 274.875C99.9126 271.068 102.271 268.909 105.481 268.909C108.592 268.909 110.481 270.94 110.481 274.364V288H113.833V274.136C113.833 268.568 110.864 265.898 106.447 265.898C103.151 265.898 101.106 267.375 100.083 269.591H99.799V266.182H96.5604V288H99.9126V274.875ZM140.697 266.182H136.038V260.955H132.686V266.182H129.391V269.023H132.686V282.659C132.686 286.466 135.754 288.284 138.595 288.284C139.845 288.284 140.641 288.057 141.095 287.886L140.413 284.875C140.129 284.932 139.675 285.045 138.936 285.045C137.459 285.045 136.038 284.591 136.038 281.75V269.023H140.697V266.182ZM149.561 274.875C149.561 271.068 151.99 268.909 155.3 268.909C158.453 268.909 160.357 270.898 160.357 274.364V288H163.709V274.136C163.709 268.526 160.726 265.898 156.266 265.898C152.828 265.898 150.868 267.332 149.845 269.591H149.561V258.909H146.209V288H149.561V274.875ZM178.989 288.455C183.421 288.455 186.66 286.239 187.683 282.943L184.444 282.034C183.592 284.307 181.617 285.443 178.989 285.443C175.055 285.443 172.342 282.901 172.185 278.227H188.023V276.807C188.023 268.682 183.194 265.898 178.648 265.898C172.739 265.898 168.819 270.557 168.819 277.261C168.819 283.966 172.683 288.455 178.989 288.455ZM172.185 275.33C172.413 271.935 174.813 268.909 178.648 268.909C182.285 268.909 184.614 271.636 184.614 275.33H172.185ZM204.373 296.182H207.725V284.648H208.009C208.748 285.841 210.168 288.455 214.373 288.455C219.827 288.455 223.634 284.08 223.634 277.148C223.634 270.273 219.827 265.898 214.316 265.898C210.055 265.898 208.748 268.511 208.009 269.648H207.612V266.182H204.373V296.182ZM207.668 277.091C207.668 272.205 209.827 268.909 213.918 268.909C218.18 268.909 220.282 272.489 220.282 277.091C220.282 281.75 218.123 285.443 213.918 285.443C209.884 285.443 207.668 282.034 207.668 277.091ZM235.168 288.511C238.975 288.511 240.964 286.466 241.646 285.045H241.816V288H245.168V273.625C245.168 266.693 239.884 265.898 237.1 265.898C233.805 265.898 230.055 267.034 228.35 271.011L231.532 272.148C232.271 270.557 234.018 268.852 237.214 268.852C240.296 268.852 241.816 270.486 241.816 273.284V273.398C241.816 275.017 240.168 274.875 236.191 275.386C232.143 275.912 227.725 276.807 227.725 281.807C227.725 286.068 231.021 288.511 235.168 288.511ZM235.68 285.5C233.009 285.5 231.077 284.307 231.077 281.977C231.077 279.42 233.407 278.625 236.021 278.284C237.441 278.114 241.248 277.716 241.816 277.034V280.102C241.816 282.83 239.657 285.5 235.68 285.5ZM254.639 258.909H251.287V288H254.639V258.909ZM260.779 288H264.131V274.364C264.131 271.168 266.461 268.909 269.075 268.909C271.617 268.909 273.393 270.571 273.393 273.057V288H276.802V273.795C276.802 270.983 278.563 268.909 281.631 268.909C284.018 268.909 286.063 270.173 286.063 273.398V288H289.415V273.398C289.415 268.27 286.66 265.898 282.768 265.898C279.643 265.898 277.356 267.332 276.234 269.591H276.006C274.927 267.261 273.023 265.898 270.154 265.898C267.313 265.898 265.211 267.261 264.302 269.591H264.018V266.182H260.779V288ZM310.999 271.068C309.948 267.972 307.59 265.898 303.272 265.898C298.67 265.898 295.261 268.511 295.261 272.205C295.261 275.216 297.05 277.233 301.056 278.17L304.692 279.023C306.894 279.534 307.931 280.585 307.931 282.091C307.931 283.966 305.942 285.5 302.817 285.5C300.076 285.5 298.357 284.321 297.761 281.977L294.579 282.773C295.36 286.48 298.414 288.455 302.874 288.455C307.945 288.455 311.397 285.685 311.397 281.92C311.397 278.881 309.494 276.963 305.602 276.011L302.363 275.216C299.778 274.577 298.613 273.71 298.613 272.034C298.613 270.159 300.602 268.795 303.272 268.795C306.198 268.795 307.406 270.415 307.988 271.92L310.999 271.068ZM336.557 288.455C342.466 288.455 346.443 283.966 346.443 277.205C346.443 270.386 342.466 265.898 336.557 265.898C330.648 265.898 326.67 270.386 326.67 277.205C326.67 283.966 330.648 288.455 336.557 288.455ZM336.557 285.443C332.068 285.443 330.023 281.58 330.023 277.205C330.023 272.83 332.068 268.909 336.557 268.909C341.045 268.909 343.091 272.83 343.091 277.205C343.091 281.58 341.045 285.443 336.557 285.443ZM361.276 266.182H356.39V263.966C356.39 261.807 357.299 260.67 359.515 260.67C360.481 260.67 361.049 260.898 361.39 261.011L362.356 258.114C361.844 257.886 360.822 257.545 359.174 257.545C356.049 257.545 353.038 259.42 353.038 263.17V266.182H349.515V269.023H353.038V288H356.39V269.023H361.276V266.182ZM379.384 296.182C382.409 296.182 384.54 294.577 385.804 291.182L395.094 266.239L391.429 266.182L385.406 283.568H385.179L379.156 266.182H375.52L383.588 288.114L382.963 289.818C381.741 293.142 380.236 293.455 377.793 292.83L376.94 295.784C377.281 295.955 378.247 296.182 379.384 296.182ZM407.612 288.455C413.521 288.455 417.498 283.966 417.498 277.205C417.498 270.386 413.521 265.898 407.612 265.898C401.702 265.898 397.725 270.386 397.725 277.205C397.725 283.966 401.702 288.455 407.612 288.455ZM407.612 285.443C403.123 285.443 401.077 281.58 401.077 277.205C401.077 272.83 403.123 268.909 407.612 268.909C412.1 268.909 414.146 272.83 414.146 277.205C414.146 281.58 412.1 285.443 407.612 285.443ZM436.365 279.08C436.365 283.17 433.24 285.045 430.74 285.045C427.956 285.045 425.967 283 425.967 279.818V266.182H422.615V280.045C422.615 285.614 425.57 288.284 429.661 288.284C432.956 288.284 435.115 286.523 436.138 284.307H436.365V288H439.717V266.182H436.365V279.08ZM445.857 288H449.21V274.193C449.21 271.239 451.539 269.08 454.721 269.08C455.616 269.08 456.539 269.25 456.766 269.307V265.898C456.383 265.869 455.502 265.841 455.005 265.841C452.391 265.841 450.119 267.318 449.323 269.477H449.096V266.182H445.857V288ZM475.342 274.875C475.342 271.068 477.771 268.909 481.081 268.909C484.234 268.909 486.138 270.898 486.138 274.364V288H489.49V274.136C489.49 268.526 486.507 265.898 482.047 265.898C478.609 265.898 476.649 267.332 475.626 269.591H475.342V258.909H471.99V288H475.342V274.875ZM502.043 288.511C505.85 288.511 507.839 286.466 508.521 285.045H508.691V288H512.043V273.625C512.043 266.693 506.759 265.898 503.975 265.898C500.68 265.898 496.93 267.034 495.225 271.011L498.407 272.148C499.146 270.557 500.893 268.852 504.089 268.852C507.171 268.852 508.691 270.486 508.691 273.284V273.398C508.691 275.017 507.043 274.875 503.066 275.386C499.018 275.912 494.6 276.807 494.6 281.807C494.6 286.068 497.896 288.511 502.043 288.511ZM502.555 285.5C499.884 285.5 497.952 284.307 497.952 281.977C497.952 279.42 500.282 278.625 502.896 278.284C504.316 278.114 508.123 277.716 508.691 277.034V280.102C508.691 282.83 506.532 285.5 502.555 285.5ZM521.514 274.875C521.514 271.068 523.872 268.909 527.082 268.909C530.193 268.909 532.082 270.94 532.082 274.364V288H535.435V274.136C535.435 268.568 532.466 265.898 528.048 265.898C524.753 265.898 522.707 267.375 521.685 269.591H521.401V266.182H518.162V288H521.514V274.875ZM549.799 288.455C554.004 288.455 555.424 285.841 556.163 284.648H556.56V288H559.799V258.909H556.447V269.648H556.163C555.424 268.511 554.117 265.898 549.856 265.898C544.344 265.898 540.538 270.273 540.538 277.148C540.538 284.08 544.344 288.455 549.799 288.455ZM550.254 285.443C546.049 285.443 543.89 281.75 543.89 277.091C543.89 272.489 545.992 268.909 550.254 268.909C554.344 268.909 556.504 272.205 556.504 277.091C556.504 282.034 554.288 285.443 550.254 285.443ZM581.859 271.068C580.808 267.972 578.45 265.898 574.131 265.898C569.529 265.898 566.12 268.511 566.12 272.205C566.12 275.216 567.91 277.233 571.915 278.17L575.552 279.023C577.754 279.534 578.79 280.585 578.79 282.091C578.79 283.966 576.802 285.5 573.677 285.5C570.935 285.5 569.217 284.321 568.62 281.977L565.438 282.773C566.219 286.48 569.273 288.455 573.734 288.455C578.805 288.455 582.256 285.685 582.256 281.92C582.256 278.881 580.353 276.963 576.461 276.011L573.222 275.216C570.637 274.577 569.472 273.71 569.472 272.034C569.472 270.159 571.461 268.795 574.131 268.795C577.058 268.795 578.265 270.415 578.847 271.92L581.859 271.068Z" fill="#00D1FF"/>
<path d="M100.776 345.312L98.88 343.392C98.16 344.064 97.432 344.6 96.696 345C95.96 345.384 95.08 345.576 94.056 345.576C93.256 345.576 92.512 345.424 91.824 345.12C91.152 344.8 90.568 344.368 90.072 343.824C89.576 343.28 89.192 342.648 88.92 341.928C88.648 341.192 88.512 340.408 88.512 339.576C88.512 338.744 88.648 337.968 88.92 337.248C89.192 336.528 89.576 335.904 90.072 335.376C90.568 334.832 91.152 334.408 91.824 334.104C92.512 333.784 93.256 333.624 94.056 333.624C95.016 333.624 95.872 333.816 96.624 334.2C97.376 334.584 98.088 335.088 98.76 335.712L100.656 333.528C100.256 333.144 99.832 332.792 99.384 332.472C98.936 332.152 98.448 331.88 97.92 331.656C97.392 331.416 96.808 331.232 96.168 331.104C95.544 330.976 94.848 330.912 94.08 330.912C92.8 330.912 91.632 331.144 90.576 331.608C89.52 332.056 88.608 332.68 87.84 333.48C87.072 334.264 86.472 335.184 86.04 336.24C85.624 337.296 85.416 338.424 85.416 339.624C85.416 340.84 85.632 341.976 86.064 343.032C86.496 344.088 87.088 345.008 87.84 345.792C88.608 346.56 89.512 347.168 90.552 347.616C91.592 348.064 92.728 348.288 93.96 348.288C94.744 348.288 95.456 348.216 96.096 348.072C96.752 347.944 97.352 347.752 97.896 347.496C98.44 347.224 98.944 346.912 99.408 346.56C99.888 346.192 100.344 345.776 100.776 345.312ZM106.447 343.176C106.447 342.344 106.551 341.616 106.759 340.992C106.967 340.352 107.263 339.824 107.647 339.408C108.031 338.992 108.487 338.68 109.015 338.472C109.543 338.264 110.127 338.16 110.767 338.16H110.935V335.088C109.815 335.04 108.887 335.304 108.151 335.88C107.415 336.456 106.847 337.224 106.447 338.184V335.328H103.543V348H106.447V343.176ZM115.243 342.696H124.555C124.571 342.552 124.579 342.416 124.579 342.288C124.595 342.16 124.603 342.032 124.603 341.904C124.603 340.992 124.475 340.12 124.219 339.288C123.963 338.456 123.579 337.728 123.067 337.104C122.571 336.48 121.939 335.984 121.171 335.616C120.419 335.248 119.539 335.064 118.531 335.064C117.619 335.064 116.787 335.24 116.035 335.592C115.283 335.944 114.627 336.424 114.067 337.032C113.523 337.624 113.099 338.32 112.795 339.12C112.491 339.92 112.339 340.776 112.339 341.688C112.339 342.68 112.507 343.584 112.843 344.4C113.179 345.2 113.635 345.888 114.211 346.464C114.803 347.04 115.491 347.488 116.275 347.808C117.075 348.128 117.931 348.288 118.843 348.288C120.011 348.288 121.011 348.072 121.843 347.64C122.691 347.208 123.419 346.632 124.027 345.912L122.323 344.4C121.811 344.896 121.291 345.272 120.763 345.528C120.235 345.784 119.611 345.912 118.891 345.912C117.947 345.912 117.147 345.64 116.491 345.096C115.835 344.536 115.419 343.736 115.243 342.696ZM115.219 340.776C115.347 339.784 115.699 338.984 116.275 338.376C116.867 337.752 117.611 337.44 118.507 337.44C118.987 337.44 119.411 337.528 119.779 337.704C120.163 337.88 120.491 338.12 120.763 338.424C121.035 338.712 121.251 339.064 121.411 339.48C121.571 339.88 121.675 340.312 121.723 340.776H115.219ZM138.151 348V340.488C138.151 338.792 137.695 337.48 136.783 336.552C135.871 335.608 134.471 335.136 132.583 335.136C131.543 335.136 130.655 335.232 129.919 335.424C129.183 335.616 128.463 335.872 127.759 336.192L128.551 338.52C129.127 338.28 129.695 338.088 130.255 337.944C130.815 337.8 131.455 337.728 132.175 337.728C133.183 337.728 133.951 337.96 134.479 338.424C135.023 338.888 135.295 339.56 135.295 340.44V340.752C134.799 340.592 134.279 340.464 133.735 340.368C133.207 340.272 132.559 340.224 131.791 340.224C131.055 340.224 130.367 340.312 129.727 340.488C129.103 340.648 128.559 340.896 128.095 341.232C127.647 341.568 127.295 341.992 127.039 342.504C126.783 343.016 126.655 343.616 126.655 344.304V344.352C126.655 344.992 126.775 345.56 127.015 346.056C127.271 346.536 127.599 346.944 127.999 347.28C128.415 347.6 128.895 347.84 129.439 348C129.983 348.176 130.559 348.264 131.167 348.264C132.127 348.264 132.943 348.088 133.615 347.736C134.287 347.384 134.839 346.952 135.271 346.44V348H138.151ZM135.343 343.416C135.343 343.816 135.255 344.184 135.079 344.52C134.919 344.84 134.687 345.12 134.383 345.36C134.079 345.584 133.719 345.76 133.303 345.888C132.903 346.016 132.463 346.08 131.983 346.08C131.295 346.08 130.711 345.92 130.231 345.6C129.767 345.28 129.535 344.816 129.535 344.208V344.16C129.535 343.504 129.791 343 130.303 342.648C130.815 342.296 131.527 342.12 132.439 342.12C132.999 342.12 133.527 342.168 134.023 342.264C134.535 342.36 134.975 342.48 135.343 342.624V343.416ZM144.992 337.824H148.4V335.328H144.992V331.848H142.088V335.328H140.48V337.824H142.088V344.496C142.088 345.2 142.176 345.792 142.352 346.272C142.528 346.736 142.776 347.112 143.096 347.4C143.432 347.688 143.824 347.896 144.272 348.024C144.72 348.152 145.208 348.216 145.736 348.216C146.28 348.216 146.76 348.16 147.176 348.048C147.592 347.936 147.984 347.776 148.352 347.568V345.192C147.776 345.48 147.176 345.624 146.552 345.624C146.056 345.624 145.672 345.504 145.4 345.264C145.128 345.008 144.992 344.6 144.992 344.04V337.824ZM154.5 333.384V330.624H151.38V333.384H154.5ZM154.404 348V335.328H151.5V348H154.404ZM161.103 340.848C161.103 339.856 161.367 339.088 161.895 338.544C162.423 337.984 163.111 337.704 163.959 337.704C164.823 337.704 165.487 337.976 165.951 338.52C166.431 339.048 166.671 339.808 166.671 340.8V348H169.575V339.936C169.575 338.448 169.183 337.264 168.399 336.384C167.615 335.504 166.503 335.064 165.063 335.064C164.567 335.064 164.119 335.128 163.719 335.256C163.335 335.368 162.975 335.528 162.639 335.736C162.319 335.944 162.031 336.184 161.775 336.456C161.535 336.712 161.311 336.992 161.103 337.296V335.328H158.199V348H161.103V340.848ZM185.538 345.408V335.328H182.634V337.224C182.138 336.632 181.538 336.128 180.834 335.712C180.146 335.28 179.266 335.064 178.194 335.064C177.458 335.064 176.738 335.2 176.034 335.472C175.346 335.744 174.73 336.136 174.186 336.648C173.658 337.16 173.234 337.784 172.914 338.52C172.594 339.256 172.434 340.096 172.434 341.04C172.434 341.984 172.594 342.824 172.914 343.56C173.234 344.296 173.658 344.92 174.186 345.432C174.73 345.944 175.346 346.336 176.034 346.608C176.722 346.864 177.442 346.992 178.194 346.992C179.234 346.992 180.106 346.776 180.81 346.344C181.514 345.912 182.13 345.352 182.658 344.664V345.648C182.658 346.928 182.314 347.896 181.626 348.552C180.938 349.208 179.946 349.536 178.65 349.536C177.786 349.536 176.986 349.416 176.25 349.176C175.514 348.936 174.81 348.608 174.138 348.192L173.058 350.376C174.722 351.384 176.61 351.888 178.722 351.888C180.898 351.888 182.578 351.368 183.762 350.328C184.946 349.288 185.538 347.648 185.538 345.408ZM182.682 341.04C182.682 341.568 182.578 342.048 182.37 342.48C182.178 342.896 181.914 343.264 181.578 343.584C181.242 343.888 180.842 344.128 180.378 344.304C179.93 344.464 179.458 344.544 178.962 344.544C178.466 344.544 177.994 344.464 177.546 344.304C177.114 344.128 176.738 343.888 176.418 343.584C176.098 343.264 175.842 342.888 175.65 342.456C175.458 342.024 175.362 341.544 175.362 341.016C175.362 340.488 175.45 340.008 175.626 339.576C175.818 339.144 176.074 338.776 176.394 338.472C176.73 338.168 177.114 337.936 177.546 337.776C177.978 337.6 178.45 337.512 178.962 337.512C179.458 337.512 179.93 337.6 180.378 337.776C180.842 337.936 181.242 338.168 181.578 338.472C181.914 338.776 182.178 339.152 182.37 339.6C182.578 340.032 182.682 340.512 182.682 341.04ZM206.987 348V340.488C206.987 338.792 206.531 337.48 205.619 336.552C204.707 335.608 203.307 335.136 201.419 335.136C200.379 335.136 199.491 335.232 198.755 335.424C198.019 335.616 197.299 335.872 196.595 336.192L197.387 338.52C197.963 338.28 198.531 338.088 199.091 337.944C199.651 337.8 200.291 337.728 201.011 337.728C202.019 337.728 202.787 337.96 203.315 338.424C203.859 338.888 204.131 339.56 204.131 340.44V340.752C203.635 340.592 203.115 340.464 202.571 340.368C202.043 340.272 201.395 340.224 200.627 340.224C199.891 340.224 199.203 340.312 198.563 340.488C197.939 340.648 197.395 340.896 196.931 341.232C196.483 341.568 196.131 341.992 195.875 342.504C195.619 343.016 195.491 343.616 195.491 344.304V344.352C195.491 344.992 195.611 345.56 195.851 346.056C196.107 346.536 196.435 346.944 196.835 347.28C197.251 347.6 197.731 347.84 198.275 348C198.819 348.176 199.395 348.264 200.003 348.264C200.963 348.264 201.779 348.088 202.451 347.736C203.123 347.384 203.675 346.952 204.107 346.44V348H206.987ZM204.179 343.416C204.179 343.816 204.091 344.184 203.915 344.52C203.755 344.84 203.523 345.12 203.219 345.36C202.915 345.584 202.555 345.76 202.139 345.888C201.739 346.016 201.299 346.08 200.819 346.08C200.131 346.08 199.547 345.92 199.067 345.6C198.603 345.28 198.371 344.816 198.371 344.208V344.16C198.371 343.504 198.627 343 199.139 342.648C199.651 342.296 200.363 342.12 201.275 342.12C201.835 342.12 202.363 342.168 202.859 342.264C203.371 342.36 203.811 342.48 204.179 342.624V343.416ZM227.381 335.28H224.909L222.101 344.016L219.557 335.328H216.581L220.685 348.096H223.277L226.133 339.432L228.965 348.096H231.557L235.709 335.328H232.805L230.213 344.016L227.381 335.28ZM241.212 340.848C241.212 339.856 241.476 339.088 242.004 338.544C242.532 337.984 243.22 337.704 244.068 337.704C244.932 337.704 245.596 337.976 246.06 338.52C246.54 339.048 246.78 339.808 246.78 340.8V348H249.684V339.936C249.684 338.448 249.292 337.264 248.508 336.384C247.724 335.504 246.612 335.064 245.172 335.064C244.676 335.064 244.228 335.128 243.828 335.256C243.444 335.368 243.084 335.528 242.748 335.736C242.428 335.944 242.14 336.184 241.884 336.456C241.644 336.712 241.42 336.992 241.212 337.296V330.48H238.308V348H241.212V340.848ZM266.007 341.664C266.007 340.752 265.839 339.896 265.503 339.096C265.167 338.296 264.695 337.6 264.087 337.008C263.495 336.4 262.783 335.928 261.951 335.592C261.135 335.24 260.239 335.064 259.263 335.064C258.287 335.064 257.383 335.24 256.551 335.592C255.735 335.944 255.023 336.424 254.415 337.032C253.823 337.624 253.351 338.328 252.999 339.144C252.663 339.944 252.495 340.8 252.495 341.712C252.495 342.624 252.663 343.48 252.999 344.28C253.335 345.064 253.799 345.76 254.391 346.368C254.999 346.96 255.711 347.432 256.527 347.784C257.359 348.12 258.255 348.288 259.215 348.288C260.191 348.288 261.095 348.112 261.927 347.76C262.759 347.408 263.471 346.936 264.063 346.344C264.671 345.736 265.143 345.032 265.479 344.232C265.831 343.432 266.007 342.576 266.007 341.664ZM263.103 341.712C263.103 342.272 263.015 342.8 262.839 343.296C262.663 343.776 262.407 344.2 262.071 344.568C261.735 344.936 261.327 345.232 260.847 345.456C260.383 345.664 259.855 345.768 259.263 345.768C258.703 345.768 258.183 345.664 257.703 345.456C257.239 345.232 256.831 344.936 256.479 344.568C256.143 344.2 255.879 343.768 255.687 343.272C255.495 342.76 255.399 342.224 255.399 341.664C255.399 341.104 255.487 340.584 255.663 340.104C255.839 339.608 256.095 339.176 256.431 338.808C256.767 338.44 257.167 338.152 257.631 337.944C258.111 337.72 258.639 337.608 259.215 337.608C259.791 337.608 260.311 337.72 260.775 337.944C261.255 338.152 261.663 338.448 261.999 338.832C262.351 339.2 262.623 339.632 262.815 340.128C263.007 340.624 263.103 341.152 263.103 341.712ZM272.037 348V330.48H269.133V348H272.037ZM278.04 342.696H287.352C287.368 342.552 287.376 342.416 287.376 342.288C287.392 342.16 287.4 342.032 287.4 341.904C287.4 340.992 287.272 340.12 287.016 339.288C286.76 338.456 286.376 337.728 285.864 337.104C285.368 336.48 284.736 335.984 283.968 335.616C283.216 335.248 282.336 335.064 281.328 335.064C280.416 335.064 279.584 335.24 278.832 335.592C278.08 335.944 277.424 336.424 276.864 337.032C276.32 337.624 275.896 338.32 275.592 339.12C275.288 339.92 275.136 340.776 275.136 341.688C275.136 342.68 275.304 343.584 275.64 344.4C275.976 345.2 276.432 345.888 277.008 346.464C277.6 347.04 278.288 347.488 279.072 347.808C279.872 348.128 280.728 348.288 281.64 348.288C282.808 348.288 283.808 348.072 284.64 347.64C285.488 347.208 286.216 346.632 286.824 345.912L285.12 344.4C284.608 344.896 284.088 345.272 283.56 345.528C283.032 345.784 282.408 345.912 281.688 345.912C280.744 345.912 279.944 345.64 279.288 345.096C278.632 344.536 278.216 343.736 278.04 342.696ZM278.016 340.776C278.144 339.784 278.496 338.984 279.072 338.376C279.664 337.752 280.408 337.44 281.304 337.44C281.784 337.44 282.208 337.528 282.576 337.704C282.96 337.88 283.288 338.12 283.56 338.424C283.832 338.712 284.048 339.064 284.208 339.48C284.368 339.88 284.472 340.312 284.52 340.776H278.016ZM300.416 340.848C300.416 339.856 300.68 339.088 301.208 338.544C301.736 337.984 302.424 337.704 303.272 337.704C304.136 337.704 304.8 337.976 305.264 338.52C305.744 339.048 305.984 339.808 305.984 340.8V348H308.888V339.936C308.888 338.448 308.496 337.264 307.712 336.384C306.928 335.504 305.816 335.064 304.376 335.064C303.88 335.064 303.432 335.128 303.032 335.256C302.648 335.368 302.288 335.528 301.952 335.736C301.632 335.944 301.344 336.184 301.088 336.456C300.848 336.712 300.624 336.992 300.416 337.296V335.328H297.512V348H300.416V340.848ZM314.602 342.696H323.914C323.93 342.552 323.938 342.416 323.938 342.288C323.954 342.16 323.962 342.032 323.962 341.904C323.962 340.992 323.834 340.12 323.578 339.288C323.322 338.456 322.938 337.728 322.426 337.104C321.93 336.48 321.298 335.984 320.53 335.616C319.778 335.248 318.898 335.064 317.89 335.064C316.978 335.064 316.146 335.24 315.394 335.592C314.642 335.944 313.986 336.424 313.426 337.032C312.882 337.624 312.458 338.32 312.154 339.12C311.85 339.92 311.698 340.776 311.698 341.688C311.698 342.68 311.866 343.584 312.202 344.4C312.538 345.2 312.994 345.888 313.57 346.464C314.162 347.04 314.85 347.488 315.634 347.808C316.434 348.128 317.29 348.288 318.202 348.288C319.37 348.288 320.37 348.072 321.202 347.64C322.05 347.208 322.778 346.632 323.386 345.912L321.682 344.4C321.17 344.896 320.65 345.272 320.122 345.528C319.594 345.784 318.97 345.912 318.25 345.912C317.306 345.912 316.506 345.64 315.85 345.096C315.194 344.536 314.778 343.736 314.602 342.696ZM314.578 340.776C314.706 339.784 315.058 338.984 315.634 338.376C316.226 337.752 316.97 337.44 317.866 337.44C318.346 337.44 318.77 337.528 319.138 337.704C319.522 337.88 319.85 338.12 320.122 338.424C320.394 338.712 320.61 339.064 320.77 339.48C320.93 339.88 321.034 340.312 321.082 340.776H314.578ZM336.013 335.28H333.541L330.733 344.016L328.189 335.328H325.213L329.317 348.096H331.909L334.765 339.432L337.597 348.096H340.189L344.341 335.328H341.437L338.845 344.016L336.013 335.28ZM362.465 342.48C362.465 343.472 362.201 344.248 361.673 344.808C361.145 345.352 360.457 345.624 359.609 345.624C358.745 345.624 358.073 345.36 357.593 344.832C357.129 344.288 356.897 343.52 356.897 342.528V335.328H353.993V343.392C353.993 344.88 354.385 346.064 355.169 346.944C355.953 347.824 357.065 348.264 358.505 348.264C359.481 348.264 360.281 348.048 360.905 347.616C361.529 347.168 362.049 346.64 362.465 346.032V348H365.369V335.328H362.465V342.48ZM371.923 340.848C371.923 339.856 372.187 339.088 372.715 338.544C373.243 337.984 373.931 337.704 374.779 337.704C375.643 337.704 376.307 337.976 376.771 338.52C377.251 339.048 377.491 339.808 377.491 340.8V348H380.395V339.936C380.395 338.448 380.003 337.264 379.219 336.384C378.435 335.504 377.323 335.064 375.883 335.064C375.387 335.064 374.939 335.128 374.539 335.256C374.155 335.368 373.795 335.528 373.459 335.736C373.139 335.944 372.851 336.184 372.595 336.456C372.355 336.712 372.131 336.992 371.923 337.296V335.328H369.019V348H371.923V340.848ZM387.07 333.384V330.624H383.95V333.384H387.07ZM386.974 348V335.328H384.07V348H386.974ZM396.097 344.64L392.689 335.328H389.569L394.777 348.096H397.393L402.577 335.328H399.529L396.097 344.64ZM406.524 342.696H415.836C415.852 342.552 415.86 342.416 415.86 342.288C415.876 342.16 415.884 342.032 415.884 341.904C415.884 340.992 415.756 340.12 415.5 339.288C415.244 338.456 414.86 337.728 414.348 337.104C413.852 336.48 413.22 335.984 412.452 335.616C411.7 335.248 410.82 335.064 409.812 335.064C408.9 335.064 408.068 335.24 407.316 335.592C406.564 335.944 405.908 336.424 405.348 337.032C404.804 337.624 404.38 338.32 404.076 339.12C403.772 339.92 403.62 340.776 403.62 341.688C403.62 342.68 403.788 343.584 404.124 344.4C404.46 345.2 404.916 345.888 405.492 346.464C406.084 347.04 406.772 347.488 407.556 347.808C408.356 348.128 409.212 348.288 410.124 348.288C411.292 348.288 412.292 348.072 413.124 347.64C413.972 347.208 414.7 346.632 415.308 345.912L413.604 344.4C413.092 344.896 412.572 345.272 412.044 345.528C411.516 345.784 410.892 345.912 410.172 345.912C409.228 345.912 408.428 345.64 407.772 345.096C407.116 344.536 406.7 343.736 406.524 342.696ZM406.5 340.776C406.628 339.784 406.98 338.984 407.556 338.376C408.148 337.752 408.892 337.44 409.788 337.44C410.268 337.44 410.692 337.528 411.06 337.704C411.444 337.88 411.772 338.12 412.044 338.424C412.316 338.712 412.532 339.064 412.692 339.48C412.852 339.88 412.956 340.312 413.004 340.776H406.5ZM421.705 343.176C421.705 342.344 421.809 341.616 422.017 340.992C422.225 340.352 422.521 339.824 422.905 339.408C423.289 338.992 423.745 338.68 424.273 338.472C424.801 338.264 425.385 338.16 426.025 338.16H426.193V335.088C425.073 335.04 424.145 335.304 423.409 335.88C422.673 336.456 422.105 337.224 421.705 338.184V335.328H418.801V348H421.705V343.176ZM437.763 344.256V344.208C437.763 343.632 437.643 343.144 437.403 342.744C437.163 342.344 436.851 342.008 436.467 341.736C436.099 341.448 435.683 341.208 435.219 341.016C434.755 340.824 434.291 340.656 433.827 340.512C433.459 340.4 433.099 340.288 432.747 340.176C432.411 340.048 432.107 339.92 431.835 339.792C431.579 339.648 431.371 339.496 431.211 339.336C431.051 339.16 430.971 338.96 430.971 338.736V338.688C430.971 338.32 431.123 338.016 431.427 337.776C431.747 337.536 432.187 337.416 432.747 337.416C433.275 337.416 433.851 337.528 434.475 337.752C435.099 337.96 435.715 338.248 436.323 338.616L437.475 336.552C436.803 336.104 436.059 335.752 435.243 335.496C434.427 335.24 433.619 335.112 432.819 335.112C432.195 335.112 431.603 335.2 431.043 335.376C430.499 335.552 430.019 335.808 429.603 336.144C429.203 336.48 428.883 336.888 428.643 337.368C428.419 337.848 428.307 338.384 428.307 338.976V339.024C428.307 339.632 428.427 340.144 428.667 340.56C428.907 340.96 429.211 341.304 429.579 341.592C429.963 341.864 430.387 342.088 430.851 342.264C431.331 342.44 431.803 342.6 432.267 342.744C432.635 342.856 432.987 342.968 433.323 343.08C433.675 343.176 433.979 343.296 434.235 343.44C434.507 343.568 434.715 343.72 434.859 343.896C435.019 344.072 435.099 344.28 435.099 344.52V344.568C435.099 344.984 434.923 345.32 434.571 345.576C434.235 345.816 433.755 345.936 433.131 345.936C432.475 345.936 431.787 345.808 431.067 345.552C430.363 345.28 429.667 344.888 428.979 344.376L427.683 346.344C428.483 346.968 429.347 347.44 430.275 347.76C431.219 348.08 432.147 348.24 433.059 348.24C433.715 348.24 434.331 348.16 434.907 348C435.483 347.824 435.979 347.576 436.395 347.256C436.827 346.92 437.163 346.504 437.403 346.008C437.643 345.512 437.763 344.928 437.763 344.256ZM442.923 342.696H452.235C452.251 342.552 452.259 342.416 452.259 342.288C452.275 342.16 452.283 342.032 452.283 341.904C452.283 340.992 452.155 340.12 451.899 339.288C451.643 338.456 451.259 337.728 450.747 337.104C450.251 336.48 449.619 335.984 448.851 335.616C448.099 335.248 447.219 335.064 446.211 335.064C445.299 335.064 444.467 335.24 443.715 335.592C442.963 335.944 442.307 336.424 441.747 337.032C441.203 337.624 440.779 338.32 440.475 339.12C440.171 339.92 440.019 340.776 440.019 341.688C440.019 342.68 440.187 343.584 440.523 344.4C440.859 345.2 441.315 345.888 441.891 346.464C442.483 347.04 443.171 347.488 443.955 347.808C444.755 348.128 445.611 348.288 446.523 348.288C447.691 348.288 448.691 348.072 449.523 347.64C450.371 347.208 451.099 346.632 451.707 345.912L450.003 344.4C449.491 344.896 448.971 345.272 448.443 345.528C447.915 345.784 447.291 345.912 446.571 345.912C445.627 345.912 444.827 345.64 444.171 345.096C443.515 344.536 443.099 343.736 442.923 342.696ZM442.899 340.776C443.027 339.784 443.379 338.984 443.955 338.376C444.547 337.752 445.291 337.44 446.187 337.44C446.667 337.44 447.091 337.528 447.459 337.704C447.843 337.88 448.171 338.12 448.443 338.424C448.715 338.712 448.931 339.064 449.091 339.48C449.251 339.88 449.355 340.312 449.403 340.776H442.899ZM475.21 341.664C475.21 340.752 475.042 339.896 474.706 339.096C474.37 338.296 473.898 337.6 473.29 337.008C472.698 336.4 471.986 335.928 471.154 335.592C470.338 335.24 469.442 335.064 468.466 335.064C467.49 335.064 466.586 335.24 465.754 335.592C464.938 335.944 464.226 336.424 463.618 337.032C463.026 337.624 462.554 338.328 462.202 339.144C461.866 339.944 461.698 340.8 461.698 341.712C461.698 342.624 461.866 343.48 462.202 344.28C462.538 345.064 463.002 345.76 463.594 346.368C464.202 346.96 464.914 347.432 465.73 347.784C466.562 348.12 467.458 348.288 468.418 348.288C469.394 348.288 470.298 348.112 471.13 347.76C471.962 347.408 472.674 346.936 473.266 346.344C473.874 345.736 474.346 345.032 474.682 344.232C475.034 343.432 475.21 342.576 475.21 341.664ZM472.306 341.712C472.306 342.272 472.218 342.8 472.042 343.296C471.866 343.776 471.61 344.2 471.274 344.568C470.938 344.936 470.53 345.232 470.05 345.456C469.586 345.664 469.058 345.768 468.466 345.768C467.906 345.768 467.386 345.664 466.906 345.456C466.442 345.232 466.034 344.936 465.682 344.568C465.346 344.2 465.082 343.768 464.89 343.272C464.698 342.76 464.602 342.224 464.602 341.664C464.602 341.104 464.69 340.584 464.866 340.104C465.042 339.608 465.298 339.176 465.634 338.808C465.97 338.44 466.37 338.152 466.834 337.944C467.314 337.72 467.842 337.608 468.418 337.608C468.994 337.608 469.514 337.72 469.978 337.944C470.458 338.152 470.866 338.448 471.202 338.832C471.554 339.2 471.826 339.632 472.018 340.128C472.21 340.624 472.306 341.152 472.306 341.712ZM481.672 335.424V334.728C481.672 333.448 482.232 332.808 483.352 332.808C483.672 332.808 483.96 332.84 484.216 332.904C484.488 332.952 484.768 333.024 485.056 333.12V330.672C484.736 330.576 484.392 330.496 484.024 330.432C483.656 330.368 483.216 330.336 482.704 330.336C481.456 330.336 480.496 330.68 479.824 331.368C479.152 332.04 478.816 333.08 478.816 334.488V335.4H477.208V337.824H478.816V348H481.72V337.824H485.032V335.424H481.672ZM505.427 345.912L503.675 344.184C503.211 344.648 502.715 345.032 502.187 345.336C501.675 345.624 501.075 345.768 500.387 345.768C499.827 345.768 499.315 345.664 498.851 345.456C498.387 345.232 497.987 344.936 497.651 344.568C497.315 344.2 497.051 343.768 496.859 343.272C496.683 342.776 496.595 342.24 496.595 341.664C496.595 341.104 496.683 340.584 496.859 340.104C497.051 339.608 497.307 339.176 497.627 338.808C497.947 338.44 498.331 338.152 498.779 337.944C499.227 337.72 499.715 337.608 500.243 337.608C500.979 337.608 501.595 337.76 502.091 338.064C502.603 338.352 503.083 338.728 503.531 339.192L505.331 337.248C504.739 336.592 504.043 336.064 503.243 335.664C502.459 335.264 501.467 335.064 500.267 335.064C499.323 335.064 498.443 335.24 497.627 335.592C496.827 335.944 496.131 336.424 495.539 337.032C494.963 337.64 494.507 338.344 494.171 339.144C493.851 339.944 493.691 340.8 493.691 341.712C493.691 342.624 493.851 343.48 494.171 344.28C494.507 345.064 494.963 345.76 495.539 346.368C496.131 346.96 496.827 347.432 497.627 347.784C498.427 348.12 499.299 348.288 500.243 348.288C501.475 348.288 502.491 348.072 503.291 347.64C504.091 347.192 504.803 346.616 505.427 345.912ZM511.001 340.848C511.001 339.856 511.265 339.088 511.793 338.544C512.321 337.984 513.009 337.704 513.857 337.704C514.721 337.704 515.385 337.976 515.849 338.52C516.329 339.048 516.569 339.808 516.569 340.8V348H519.473V339.936C519.473 338.448 519.081 337.264 518.297 336.384C517.513 335.504 516.401 335.064 514.961 335.064C514.465 335.064 514.017 335.128 513.617 335.256C513.233 335.368 512.873 335.528 512.537 335.736C512.217 335.944 511.929 336.184 511.673 336.456C511.433 336.712 511.209 336.992 511.001 337.296V330.48H508.097V348H511.001V340.848ZM533.612 348V340.488C533.612 338.792 533.156 337.48 532.244 336.552C531.332 335.608 529.932 335.136 528.044 335.136C527.004 335.136 526.116 335.232 525.38 335.424C524.644 335.616 523.924 335.872 523.22 336.192L524.012 338.52C524.588 338.28 525.156 338.088 525.716 337.944C526.276 337.8 526.916 337.728 527.636 337.728C528.644 337.728 529.412 337.96 529.94 338.424C530.484 338.888 530.756 339.56 530.756 340.44V340.752C530.26 340.592 529.74 340.464 529.196 340.368C528.668 340.272 528.02 340.224 527.252 340.224C526.516 340.224 525.828 340.312 525.188 340.488C524.564 340.648 524.02 340.896 523.556 341.232C523.108 341.568 522.756 341.992 522.5 342.504C522.244 343.016 522.116 343.616 522.116 344.304V344.352C522.116 344.992 522.236 345.56 522.476 346.056C522.732 346.536 523.06 346.944 523.46 347.28C523.876 347.6 524.356 347.84 524.9 348C525.444 348.176 526.02 348.264 526.628 348.264C527.588 348.264 528.404 348.088 529.076 347.736C529.748 347.384 530.3 346.952 530.732 346.44V348H533.612ZM530.804 343.416C530.804 343.816 530.716 344.184 530.54 344.52C530.38 344.84 530.148 345.12 529.844 345.36C529.54 345.584 529.18 345.76 528.764 345.888C528.364 346.016 527.924 346.08 527.444 346.08C526.756 346.08 526.172 345.92 525.692 345.6C525.228 345.28 524.996 344.816 524.996 344.208V344.16C524.996 343.504 525.252 343 525.764 342.648C526.276 342.296 526.988 342.12 527.9 342.12C528.46 342.12 528.988 342.168 529.484 342.264C529.996 342.36 530.436 342.48 530.804 342.624V343.416ZM539.97 343.176C539.97 342.344 540.074 341.616 540.282 340.992C540.49 340.352 540.786 339.824 541.17 339.408C541.554 338.992 542.01 338.68 542.538 338.472C543.066 338.264 543.65 338.16 544.29 338.16H544.458V335.088C543.338 335.04 542.41 335.304 541.674 335.88C540.938 336.456 540.37 337.224 539.97 338.184V335.328H537.066V348H539.97V343.176ZM557.003 348V340.488C557.003 338.792 556.547 337.48 555.635 336.552C554.723 335.608 553.323 335.136 551.435 335.136C550.395 335.136 549.507 335.232 548.771 335.424C548.035 335.616 547.315 335.872 546.611 336.192L547.403 338.52C547.979 338.28 548.547 338.088 549.107 337.944C549.667 337.8 550.307 337.728 551.027 337.728C552.035 337.728 552.803 337.96 553.331 338.424C553.875 338.888 554.147 339.56 554.147 340.44V340.752C553.651 340.592 553.131 340.464 552.587 340.368C552.059 340.272 551.411 340.224 550.643 340.224C549.907 340.224 549.219 340.312 548.579 340.488C547.955 340.648 547.411 340.896 546.947 341.232C546.499 341.568 546.147 341.992 545.891 342.504C545.635 343.016 545.507 343.616 545.507 344.304V344.352C545.507 344.992 545.627 345.56 545.867 346.056C546.123 346.536 546.451 346.944 546.851 347.28C547.267 347.6 547.747 347.84 548.291 348C548.835 348.176 549.411 348.264 550.019 348.264C550.979 348.264 551.795 348.088 552.467 347.736C553.139 347.384 553.691 346.952 554.123 346.44V348H557.003ZM554.195 343.416C554.195 343.816 554.107 344.184 553.931 344.52C553.771 344.84 553.539 345.12 553.235 345.36C552.931 345.584 552.571 345.76 552.155 345.888C551.755 346.016 551.315 346.08 550.835 346.08C550.147 346.08 549.563 345.92 549.083 345.6C548.619 345.28 548.387 344.816 548.387 344.208V344.16C548.387 343.504 548.643 343 549.155 342.648C549.667 342.296 550.379 342.12 551.291 342.12C551.851 342.12 552.379 342.168 552.875 342.264C553.387 342.36 553.827 342.48 554.195 342.624V343.416ZM571.497 345.912L569.745 344.184C569.281 344.648 568.785 345.032 568.257 345.336C567.745 345.624 567.145 345.768 566.457 345.768C565.897 345.768 565.385 345.664 564.921 345.456C564.457 345.232 564.057 344.936 563.721 344.568C563.385 344.2 563.121 343.768 562.929 343.272C562.753 342.776 562.665 342.24 562.665 341.664C562.665 341.104 562.753 340.584 562.929 340.104C563.121 339.608 563.377 339.176 563.697 338.808C564.017 338.44 564.401 338.152 564.849 337.944C565.297 337.72 565.785 337.608 566.313 337.608C567.049 337.608 567.665 337.76 568.161 338.064C568.673 338.352 569.153 338.728 569.601 339.192L571.401 337.248C570.809 336.592 570.113 336.064 569.313 335.664C568.529 335.264 567.537 335.064 566.337 335.064C565.393 335.064 564.513 335.24 563.697 335.592C562.897 335.944 562.201 336.424 561.609 337.032C561.033 337.64 560.577 338.344 560.241 339.144C559.921 339.944 559.761 340.8 559.761 341.712C559.761 342.624 559.921 343.48 560.241 344.28C560.577 345.064 561.033 345.76 561.609 346.368C562.201 346.96 562.897 347.432 563.697 347.784C564.497 348.12 565.369 348.288 566.313 348.288C567.545 348.288 568.561 348.072 569.361 347.64C570.161 347.192 570.873 346.616 571.497 345.912ZM577.672 337.824H581.08V335.328H577.672V331.848H574.768V335.328H573.16V337.824H574.768V344.496C574.768 345.2 574.856 345.792 575.032 346.272C575.208 346.736 575.456 347.112 575.776 347.4C576.112 347.688 576.504 347.896 576.952 348.024C577.4 348.152 577.888 348.216 578.416 348.216C578.96 348.216 579.44 348.16 579.856 348.048C580.272 347.936 580.664 347.776 581.032 347.568V345.192C580.456 345.48 579.856 345.624 579.232 345.624C578.736 345.624 578.352 345.504 578.08 345.264C577.808 345.008 577.672 344.6 577.672 344.04V337.824ZM585.868 342.696H595.18C595.196 342.552 595.204 342.416 595.204 342.288C595.22 342.16 595.228 342.032 595.228 341.904C595.228 340.992 595.1 340.12 594.844 339.288C594.588 338.456 594.204 337.728 593.692 337.104C593.196 336.48 592.564 335.984 591.796 335.616C591.044 335.248 590.164 335.064 589.156 335.064C588.244 335.064 587.412 335.24 586.66 335.592C585.908 335.944 585.252 336.424 584.692 337.032C584.148 337.624 583.724 338.32 583.42 339.12C583.116 339.92 582.964 340.776 582.964 341.688C582.964 342.68 583.132 343.584 583.468 344.4C583.804 345.2 584.26 345.888 584.836 346.464C585.428 347.04 586.116 347.488 586.9 347.808C587.7 348.128 588.556 348.288 589.468 348.288C590.636 348.288 591.636 348.072 592.468 347.64C593.316 347.208 594.044 346.632 594.652 345.912L592.948 344.4C592.436 344.896 591.916 345.272 591.388 345.528C590.86 345.784 590.236 345.912 589.516 345.912C588.572 345.912 587.772 345.64 587.116 345.096C586.46 344.536 586.044 343.736 585.868 342.696ZM585.844 340.776C585.972 339.784 586.324 338.984 586.9 338.376C587.492 337.752 588.236 337.44 589.132 337.44C589.612 337.44 590.036 337.528 590.404 337.704C590.788 337.88 591.116 338.12 591.388 338.424C591.66 338.712 591.876 339.064 592.036 339.48C592.196 339.88 592.3 340.312 592.348 340.776H585.844ZM601.048 343.176C601.048 342.344 601.152 341.616 601.36 340.992C601.568 340.352 601.864 339.824 602.248 339.408C602.632 338.992 603.088 338.68 603.616 338.472C604.144 338.264 604.728 338.16 605.368 338.16H605.536V335.088C604.416 335.04 603.488 335.304 602.752 335.88C602.016 336.456 601.448 337.224 601.048 338.184V335.328H598.144V348H601.048V343.176ZM617.106 344.256V344.208C617.106 343.632 616.986 343.144 616.746 342.744C616.506 342.344 616.194 342.008 615.81 341.736C615.442 341.448 615.026 341.208 614.562 341.016C614.098 340.824 613.634 340.656 613.17 340.512C612.802 340.4 612.442 340.288 612.09 340.176C611.754 340.048 611.45 339.92 611.178 339.792C610.922 339.648 610.714 339.496 610.554 339.336C610.394 339.16 610.314 338.96 610.314 338.736V338.688C610.314 338.32 610.466 338.016 610.77 337.776C611.09 337.536 611.53 337.416 612.09 337.416C612.618 337.416 613.194 337.528 613.818 337.752C614.442 337.96 615.058 338.248 615.666 338.616L616.818 336.552C616.146 336.104 615.402 335.752 614.586 335.496C613.77 335.24 612.962 335.112 612.162 335.112C611.538 335.112 610.946 335.2 610.386 335.376C609.842 335.552 609.362 335.808 608.946 336.144C608.546 336.48 608.226 336.888 607.986 337.368C607.762 337.848 607.65 338.384 607.65 338.976V339.024C607.65 339.632 607.77 340.144 608.01 340.56C608.25 340.96 608.554 341.304 608.922 341.592C609.306 341.864 609.73 342.088 610.194 342.264C610.674 342.44 611.146 342.6 611.61 342.744C611.978 342.856 612.33 342.968 612.666 343.08C613.018 343.176 613.322 343.296 613.578 343.44C613.85 343.568 614.058 343.72 614.202 343.896C614.362 344.072 614.442 344.28 614.442 344.52V344.568C614.442 344.984 614.266 345.32 613.914 345.576C613.578 345.816 613.098 345.936 612.474 345.936C611.818 345.936 611.13 345.808 610.41 345.552C609.706 345.28 609.01 344.888 608.322 344.376L607.026 346.344C607.826 346.968 608.69 347.44 609.618 347.76C610.562 348.08 611.49 348.24 612.402 348.24C613.058 348.24 613.674 348.16 614.25 348C614.826 347.824 615.322 347.576 615.738 347.256C616.17 346.92 616.506 346.504 616.746 346.008C616.986 345.512 617.106 344.928 617.106 344.256ZM637.886 348V340.488C637.886 338.792 637.43 337.48 636.518 336.552C635.606 335.608 634.206 335.136 632.318 335.136C631.278 335.136 630.39 335.232 629.654 335.424C628.918 335.616 628.198 335.872 627.494 336.192L628.286 338.52C628.862 338.28 629.43 338.088 629.99 337.944C630.55 337.8 631.19 337.728 631.91 337.728C632.918 337.728 633.686 337.96 634.214 338.424C634.758 338.888 635.03 339.56 635.03 340.44V340.752C634.534 340.592 634.014 340.464 633.47 340.368C632.942 340.272 632.294 340.224 631.526 340.224C630.79 340.224 630.102 340.312 629.462 340.488C628.838 340.648 628.294 340.896 627.83 341.232C627.382 341.568 627.03 341.992 626.774 342.504C626.518 343.016 626.39 343.616 626.39 344.304V344.352C626.39 344.992 626.51 345.56 626.75 346.056C627.006 346.536 627.334 346.944 627.734 347.28C628.15 347.6 628.63 347.84 629.174 348C629.718 348.176 630.294 348.264 630.902 348.264C631.862 348.264 632.678 348.088 633.35 347.736C634.022 347.384 634.574 346.952 635.006 346.44V348H637.886ZM635.078 343.416C635.078 343.816 634.99 344.184 634.814 344.52C634.654 344.84 634.422 345.12 634.118 345.36C633.814 345.584 633.454 345.76 633.038 345.888C632.638 346.016 632.198 346.08 631.718 346.08C631.03 346.08 630.446 345.92 629.966 345.6C629.502 345.28 629.27 344.816 629.27 344.208V344.16C629.27 343.504 629.526 343 630.038 342.648C630.55 342.296 631.262 342.12 632.174 342.12C632.734 342.12 633.262 342.168 633.758 342.264C634.27 342.36 634.71 342.48 635.078 342.624V343.416ZM644.244 340.848C644.244 339.856 644.508 339.088 645.036 338.544C645.564 337.984 646.252 337.704 647.1 337.704C647.964 337.704 648.628 337.976 649.092 338.52C649.572 339.048 649.812 339.808 649.812 340.8V348H652.716V339.936C652.716 338.448 652.324 337.264 651.54 336.384C650.756 335.504 649.644 335.064 648.204 335.064C647.708 335.064 647.26 335.128 646.86 335.256C646.476 335.368 646.116 335.528 645.78 335.736C645.46 335.944 645.172 336.184 644.916 336.456C644.676 336.712 644.452 336.992 644.244 337.296V335.328H641.34V348H644.244V340.848ZM668.678 348V330.48H665.774V337.296C665.31 336.704 664.734 336.184 664.046 335.736C663.358 335.288 662.494 335.064 661.454 335.064C660.702 335.064 659.966 335.208 659.246 335.496C658.542 335.784 657.918 336.216 657.374 336.792C656.83 337.352 656.39 338.04 656.054 338.856C655.734 339.672 655.574 340.608 655.574 341.664C655.574 342.72 655.742 343.656 656.078 344.472C656.414 345.288 656.854 345.984 657.398 346.56C657.942 347.12 658.566 347.544 659.27 347.832C659.974 348.12 660.702 348.264 661.454 348.264C662.478 348.264 663.334 348.032 664.022 347.568C664.726 347.104 665.31 346.544 665.774 345.888V348H668.678ZM665.822 341.664C665.822 342.288 665.718 342.848 665.51 343.344C665.318 343.84 665.054 344.272 664.718 344.64C664.382 344.992 663.99 345.264 663.542 345.456C663.094 345.648 662.63 345.744 662.15 345.744C661.654 345.744 661.182 345.648 660.734 345.456C660.302 345.264 659.918 344.992 659.582 344.64C659.246 344.288 658.982 343.864 658.79 343.368C658.598 342.856 658.502 342.288 658.502 341.664C658.502 341.024 658.598 340.456 658.79 339.96C658.982 339.448 659.246 339.016 659.582 338.664C659.918 338.312 660.302 338.048 660.734 337.872C661.182 337.68 661.654 337.584 662.15 337.584C662.63 337.584 663.094 337.68 663.542 337.872C663.99 338.064 664.382 338.344 664.718 338.712C665.054 339.064 665.318 339.488 665.51 339.984C665.718 340.48 665.822 341.04 665.822 341.664ZM98.928 373.664C98.928 372.608 98.76 371.672 98.424 370.856C98.088 370.04 97.64 369.352 97.08 368.792C96.536 368.216 95.912 367.784 95.208 367.496C94.504 367.208 93.776 367.064 93.024 367.064C92 367.064 91.144 367.296 90.456 367.76C89.768 368.208 89.192 368.768 88.728 369.44V362.48H85.824V380H88.728V378.032C89.176 378.624 89.744 379.144 90.432 379.592C91.12 380.04 91.984 380.264 93.024 380.264C93.776 380.264 94.504 380.12 95.208 379.832C95.928 379.544 96.56 379.12 97.104 378.56C97.664 377.984 98.104 377.288 98.424 376.472C98.76 375.656 98.928 374.72 98.928 373.664ZM95.976 373.664C95.976 374.288 95.88 374.856 95.688 375.368C95.496 375.864 95.232 376.288 94.896 376.64C94.576 376.992 94.192 377.264 93.744 377.456C93.312 377.648 92.848 377.744 92.352 377.744C91.856 377.744 91.384 377.648 90.936 377.456C90.488 377.264 90.096 376.992 89.76 376.64C89.424 376.272 89.152 375.84 88.944 375.344C88.752 374.848 88.656 374.288 88.656 373.664C88.656 373.04 88.752 372.48 88.944 371.984C89.152 371.488 89.424 371.064 89.76 370.712C90.096 370.344 90.488 370.064 90.936 369.872C91.384 369.68 91.856 369.584 92.352 369.584C92.848 369.584 93.312 369.68 93.744 369.872C94.192 370.064 94.576 370.336 94.896 370.688C95.232 371.04 95.496 371.472 95.688 371.984C95.88 372.48 95.976 373.04 95.976 373.664ZM104.806 375.176C104.806 374.344 104.91 373.616 105.118 372.992C105.326 372.352 105.622 371.824 106.006 371.408C106.39 370.992 106.846 370.68 107.374 370.472C107.902 370.264 108.486 370.16 109.126 370.16H109.294V367.088C108.174 367.04 107.246 367.304 106.51 367.88C105.774 368.456 105.206 369.224 104.806 370.184V367.328H101.902V380H104.806V375.176ZM114.984 365.384V362.624H111.864V365.384H114.984ZM114.888 380V367.328H111.984V380H114.888ZM121.587 372.848C121.587 371.856 121.851 371.088 122.379 370.544C122.907 369.984 123.595 369.704 124.443 369.704C125.307 369.704 125.971 369.976 126.435 370.52C126.915 371.048 127.155 371.808 127.155 372.8V380H130.059V371.936C130.059 370.448 129.667 369.264 128.883 368.384C128.099 367.504 126.987 367.064 125.547 367.064C125.051 367.064 124.603 367.128 124.203 367.256C123.819 367.368 123.459 367.528 123.123 367.736C122.803 367.944 122.515 368.184 122.259 368.456C122.019 368.712 121.795 368.992 121.587 369.296V367.328H118.683V380H121.587V372.848ZM146.022 377.408V367.328H143.118V369.224C142.622 368.632 142.022 368.128 141.318 367.712C140.63 367.28 139.75 367.064 138.678 367.064C137.942 367.064 137.222 367.2 136.518 367.472C135.83 367.744 135.214 368.136 134.67 368.648C134.142 369.16 133.718 369.784 133.398 370.52C133.078 371.256 132.918 372.096 132.918 373.04C132.918 373.984 133.078 374.824 133.398 375.56C133.718 376.296 134.142 376.92 134.67 377.432C135.214 377.944 135.83 378.336 136.518 378.608C137.206 378.864 137.926 378.992 138.678 378.992C139.718 378.992 140.59 378.776 141.294 378.344C141.998 377.912 142.614 377.352 143.142 376.664V377.648C143.142 378.928 142.798 379.896 142.11 380.552C141.422 381.208 140.43 381.536 139.134 381.536C138.27 381.536 137.47 381.416 136.734 381.176C135.998 380.936 135.294 380.608 134.622 380.192L133.542 382.376C135.206 383.384 137.094 383.888 139.206 383.888C141.382 383.888 143.062 383.368 144.246 382.328C145.43 381.288 146.022 379.648 146.022 377.408ZM143.166 373.04C143.166 373.568 143.062 374.048 142.854 374.48C142.662 374.896 142.398 375.264 142.062 375.584C141.726 375.888 141.326 376.128 140.862 376.304C140.414 376.464 139.942 376.544 139.446 376.544C138.95 376.544 138.478 376.464 138.03 376.304C137.598 376.128 137.222 375.888 136.902 375.584C136.582 375.264 136.326 374.888 136.134 374.456C135.942 374.024 135.846 373.544 135.846 373.016C135.846 372.488 135.934 372.008 136.11 371.576C136.302 371.144 136.558 370.776 136.878 370.472C137.214 370.168 137.598 369.936 138.03 369.776C138.462 369.6 138.934 369.512 139.446 369.512C139.942 369.512 140.414 369.6 140.862 369.776C141.326 369.936 141.726 370.168 142.062 370.472C142.398 370.776 142.662 371.152 142.854 371.6C143.062 372.032 143.166 372.512 143.166 373.04ZM160.344 369.824H163.752V367.328H160.344V363.848H157.44V367.328H155.832V369.824H157.44V376.496C157.44 377.2 157.528 377.792 157.704 378.272C157.88 378.736 158.128 379.112 158.448 379.4C158.784 379.688 159.176 379.896 159.624 380.024C160.072 380.152 160.56 380.216 161.088 380.216C161.632 380.216 162.112 380.16 162.528 380.048C162.944 379.936 163.336 379.776 163.704 379.568V377.192C163.128 377.48 162.528 377.624 161.904 377.624C161.408 377.624 161.024 377.504 160.752 377.264C160.48 377.008 160.344 376.6 160.344 376.04V369.824ZM169.587 372.848C169.587 371.856 169.851 371.088 170.379 370.544C170.907 369.984 171.595 369.704 172.443 369.704C173.307 369.704 173.971 369.976 174.435 370.52C174.915 371.048 175.155 371.808 175.155 372.8V380H178.059V371.936C178.059 370.448 177.667 369.264 176.883 368.384C176.099 367.504 174.987 367.064 173.547 367.064C173.051 367.064 172.603 367.128 172.203 367.256C171.819 367.368 171.459 367.528 171.123 367.736C170.803 367.944 170.515 368.184 170.259 368.456C170.019 368.712 169.795 368.992 169.587 369.296V362.48H166.683V380H169.587V372.848ZM183.774 374.696H193.086C193.102 374.552 193.11 374.416 193.11 374.288C193.126 374.16 193.134 374.032 193.134 373.904C193.134 372.992 193.006 372.12 192.75 371.288C192.494 370.456 192.11 369.728 191.598 369.104C191.102 368.48 190.47 367.984 189.702 367.616C188.95 367.248 188.07 367.064 187.062 367.064C186.15 367.064 185.318 367.24 184.566 367.592C183.814 367.944 183.158 368.424 182.598 369.032C182.054 369.624 181.63 370.32 181.326 371.12C181.022 371.92 180.87 372.776 180.87 373.688C180.87 374.68 181.038 375.584 181.374 376.4C181.71 377.2 182.166 377.888 182.742 378.464C183.334 379.04 184.022 379.488 184.806 379.808C185.606 380.128 186.462 380.288 187.374 380.288C188.542 380.288 189.542 380.072 190.374 379.64C191.222 379.208 191.95 378.632 192.558 377.912L190.854 376.4C190.342 376.896 189.822 377.272 189.294 377.528C188.766 377.784 188.142 377.912 187.422 377.912C186.478 377.912 185.678 377.64 185.022 377.096C184.366 376.536 183.95 375.736 183.774 374.696ZM183.75 372.776C183.878 371.784 184.23 370.984 184.806 370.376C185.398 369.752 186.142 369.44 187.038 369.44C187.518 369.44 187.942 369.528 188.31 369.704C188.694 369.88 189.022 370.12 189.294 370.424C189.566 370.712 189.782 371.064 189.942 371.48C190.102 371.88 190.206 372.312 190.254 372.776H183.75ZM199.219 365.384V362.624H196.099V365.384H199.219ZM199.123 380V367.328H196.219V380H199.123ZM205.822 375.176C205.822 374.344 205.926 373.616 206.134 372.992C206.342 372.352 206.638 371.824 207.022 371.408C207.406 370.992 207.862 370.68 208.39 370.472C208.918 370.264 209.502 370.16 210.142 370.16H210.31V367.088C209.19 367.04 208.262 367.304 207.526 367.88C206.79 368.456 206.222 369.224 205.822 370.184V367.328H202.918V380H205.822V375.176ZM229.075 376.256V376.208C229.075 375.632 228.955 375.144 228.715 374.744C228.475 374.344 228.163 374.008 227.779 373.736C227.411 373.448 226.995 373.208 226.531 373.016C226.067 372.824 225.603 372.656 225.139 372.512C224.771 372.4 224.411 372.288 224.059 372.176C223.723 372.048 223.419 371.92 223.147 371.792C222.891 371.648 222.683 371.496 222.523 371.336C222.363 371.16 222.283 370.96 222.283 370.736V370.688C222.283 370.32 222.435 370.016 222.739 369.776C223.059 369.536 223.499 369.416 224.059 369.416C224.587 369.416 225.163 369.528 225.787 369.752C226.411 369.96 227.027 370.248 227.635 370.616L228.787 368.552C228.115 368.104 227.371 367.752 226.555 367.496C225.739 367.24 224.931 367.112 224.131 367.112C223.507 367.112 222.915 367.2 222.355 367.376C221.811 367.552 221.331 367.808 220.915 368.144C220.515 368.48 220.195 368.888 219.955 369.368C219.731 369.848 219.619 370.384 219.619 370.976V371.024C219.619 371.632 219.739 372.144 219.979 372.56C220.219 372.96 220.523 373.304 220.891 373.592C221.275 373.864 221.699 374.088 222.163 374.264C222.643 374.44 223.115 374.6 223.579 374.744C223.947 374.856 224.299 374.968 224.635 375.08C224.987 375.176 225.291 375.296 225.547 375.44C225.819 375.568 226.027 375.72 226.171 375.896C226.331 376.072 226.411 376.28 226.411 376.52V376.568C226.411 376.984 226.235 377.32 225.883 377.576C225.547 377.816 225.067 377.936 224.443 377.936C223.787 377.936 223.099 377.808 222.379 377.552C221.675 377.28 220.979 376.888 220.291 376.376L218.995 378.344C219.795 378.968 220.659 379.44 221.587 379.76C222.531 380.08 223.459 380.24 224.371 380.24C225.027 380.24 225.643 380.16 226.219 380C226.795 379.824 227.291 379.576 227.707 379.256C228.139 378.92 228.475 378.504 228.715 378.008C228.955 377.512 229.075 376.928 229.075 376.256ZM235.297 369.824H238.705V367.328H235.297V363.848H232.393V367.328H230.785V369.824H232.393V376.496C232.393 377.2 232.481 377.792 232.657 378.272C232.833 378.736 233.081 379.112 233.401 379.4C233.737 379.688 234.129 379.896 234.577 380.024C235.025 380.152 235.513 380.216 236.041 380.216C236.585 380.216 237.065 380.16 237.481 380.048C237.897 379.936 238.289 379.776 238.657 379.568V377.192C238.081 377.48 237.481 377.624 236.857 377.624C236.361 377.624 235.977 377.504 235.705 377.264C235.433 377.008 235.297 376.6 235.297 376.04V369.824ZM254.101 373.664C254.101 372.752 253.933 371.896 253.597 371.096C253.261 370.296 252.789 369.6 252.181 369.008C251.589 368.4 250.877 367.928 250.045 367.592C249.229 367.24 248.333 367.064 247.357 367.064C246.381 367.064 245.477 367.24 244.645 367.592C243.829 367.944 243.117 368.424 242.509 369.032C241.917 369.624 241.445 370.328 241.093 371.144C240.757 371.944 240.589 372.8 240.589 373.712C240.589 374.624 240.757 375.48 241.093 376.28C241.429 377.064 241.893 377.76 242.485 378.368C243.093 378.96 243.805 379.432 244.621 379.784C245.453 380.12 246.349 380.288 247.309 380.288C248.285 380.288 249.189 380.112 250.021 379.76C250.853 379.408 251.565 378.936 252.157 378.344C252.765 377.736 253.237 377.032 253.573 376.232C253.925 375.432 254.101 374.576 254.101 373.664ZM251.197 373.712C251.197 374.272 251.109 374.8 250.933 375.296C250.757 375.776 250.501 376.2 250.165 376.568C249.829 376.936 249.421 377.232 248.941 377.456C248.477 377.664 247.949 377.768 247.357 377.768C246.797 377.768 246.277 377.664 245.797 377.456C245.333 377.232 244.925 376.936 244.573 376.568C244.237 376.2 243.973 375.768 243.781 375.272C243.589 374.76 243.493 374.224 243.493 373.664C243.493 373.104 243.581 372.584 243.757 372.104C243.933 371.608 244.189 371.176 244.525 370.808C244.861 370.44 245.261 370.152 245.725 369.944C246.205 369.72 246.733 369.608 247.309 369.608C247.885 369.608 248.405 369.72 248.869 369.944C249.349 370.152 249.757 370.448 250.093 370.832C250.445 371.2 250.717 371.632 250.909 372.128C251.101 372.624 251.197 373.152 251.197 373.712ZM259.962 375.176C259.962 374.344 260.066 373.616 260.274 372.992C260.482 372.352 260.778 371.824 261.162 371.408C261.546 370.992 262.002 370.68 262.53 370.472C263.058 370.264 263.642 370.16 264.282 370.16H264.45V367.088C263.33 367.04 262.402 367.304 261.666 367.88C260.93 368.456 260.362 369.224 259.962 370.184V367.328H257.058V380H259.962V375.176ZM278.78 367.328H275.756L272.468 376.736L268.868 367.328H265.772L271.052 380C270.812 380.56 270.556 380.944 270.284 381.152C270.012 381.36 269.668 381.464 269.252 381.464C268.948 381.464 268.652 381.416 268.364 381.32C268.092 381.24 267.82 381.128 267.548 380.984L266.564 383.144C267.012 383.384 267.468 383.568 267.932 383.696C268.412 383.84 268.956 383.912 269.564 383.912C270.076 383.912 270.532 383.848 270.932 383.72C271.332 383.592 271.7 383.384 272.036 383.096C272.372 382.824 272.676 382.464 272.948 382.016C273.22 381.568 273.484 381.016 273.74 380.36L278.78 367.328ZM284.341 380V362.48H281.437V380H284.341ZM291.305 365.384V362.624H288.185V365.384H291.305ZM291.209 380V367.328H288.305V380H291.209ZM297.908 372.848C297.908 371.856 298.172 371.088 298.7 370.544C299.228 369.984 299.916 369.704 300.764 369.704C301.628 369.704 302.292 369.976 302.756 370.52C303.236 371.048 303.476 371.808 303.476 372.8V380H306.38V371.936C306.38 370.448 305.988 369.264 305.204 368.384C304.42 367.504 303.308 367.064 301.868 367.064C301.372 367.064 300.924 367.128 300.524 367.256C300.14 367.368 299.78 367.528 299.444 367.736C299.124 367.944 298.836 368.184 298.58 368.456C298.34 368.712 298.116 368.992 297.908 369.296V367.328H295.004V380H297.908V372.848ZM312.095 374.696H321.407C321.423 374.552 321.431 374.416 321.431 374.288C321.447 374.16 321.455 374.032 321.455 373.904C321.455 372.992 321.327 372.12 321.071 371.288C320.815 370.456 320.431 369.728 319.919 369.104C319.423 368.48 318.791 367.984 318.023 367.616C317.271 367.248 316.391 367.064 315.383 367.064C314.471 367.064 313.639 367.24 312.887 367.592C312.135 367.944 311.479 368.424 310.919 369.032C310.375 369.624 309.951 370.32 309.646 371.12C309.343 371.92 309.191 372.776 309.191 373.688C309.191 374.68 309.359 375.584 309.695 376.4C310.031 377.2 310.487 377.888 311.062 378.464C311.655 379.04 312.343 379.488 313.127 379.808C313.927 380.128 314.783 380.288 315.695 380.288C316.863 380.288 317.863 380.072 318.695 379.64C319.543 379.208 320.271 378.632 320.879 377.912L319.175 376.4C318.663 376.896 318.143 377.272 317.615 377.528C317.087 377.784 316.463 377.912 315.743 377.912C314.799 377.912 313.999 377.64 313.343 377.096C312.687 376.536 312.271 375.736 312.095 374.696ZM312.071 372.776C312.199 371.784 312.551 370.984 313.127 370.376C313.719 369.752 314.463 369.44 315.359 369.44C315.839 369.44 316.263 369.528 316.631 369.704C317.015 369.88 317.343 370.12 317.615 370.424C317.887 370.712 318.103 371.064 318.263 371.48C318.423 371.88 318.527 372.312 318.575 372.776H312.071ZM333.419 376.256V376.208C333.419 375.632 333.299 375.144 333.059 374.744C332.819 374.344 332.507 374.008 332.123 373.736C331.755 373.448 331.339 373.208 330.875 373.016C330.411 372.824 329.947 372.656 329.483 372.512C329.115 372.4 328.755 372.288 328.403 372.176C328.067 372.048 327.763 371.92 327.491 371.792C327.235 371.648 327.027 371.496 326.867 371.336C326.707 371.16 326.627 370.96 326.627 370.736V370.688C326.627 370.32 326.779 370.016 327.083 369.776C327.403 369.536 327.843 369.416 328.403 369.416C328.931 369.416 329.507 369.528 330.131 369.752C330.755 369.96 331.371 370.248 331.979 370.616L333.131 368.552C332.459 368.104 331.715 367.752 330.899 367.496C330.083 367.24 329.275 367.112 328.475 367.112C327.851 367.112 327.259 367.2 326.699 367.376C326.155 367.552 325.675 367.808 325.259 368.144C324.859 368.48 324.539 368.888 324.299 369.368C324.075 369.848 323.963 370.384 323.963 370.976V371.024C323.963 371.632 324.083 372.144 324.323 372.56C324.563 372.96 324.867 373.304 325.235 373.592C325.619 373.864 326.043 374.088 326.507 374.264C326.987 374.44 327.459 374.6 327.923 374.744C328.291 374.856 328.643 374.968 328.979 375.08C329.331 375.176 329.635 375.296 329.891 375.44C330.163 375.568 330.371 375.72 330.515 375.896C330.675 376.072 330.755 376.28 330.755 376.52V376.568C330.755 376.984 330.579 377.32 330.227 377.576C329.891 377.816 329.411 377.936 328.787 377.936C328.131 377.936 327.443 377.808 326.723 377.552C326.019 377.28 325.323 376.888 324.635 376.376L323.339 378.344C324.139 378.968 325.003 379.44 325.931 379.76C326.875 380.08 327.803 380.24 328.715 380.24C329.371 380.24 329.987 380.16 330.563 380C331.139 379.824 331.635 379.576 332.051 379.256C332.483 378.92 332.819 378.504 333.059 378.008C333.299 377.512 333.419 376.928 333.419 376.256ZM347.07 369.824H350.478V367.328H347.07V363.848H344.166V367.328H342.558V369.824H344.166V376.496C344.166 377.2 344.254 377.792 344.43 378.272C344.606 378.736 344.854 379.112 345.174 379.4C345.51 379.688 345.902 379.896 346.35 380.024C346.798 380.152 347.286 380.216 347.814 380.216C348.358 380.216 348.838 380.16 349.254 380.048C349.67 379.936 350.062 379.776 350.43 379.568V377.192C349.854 377.48 349.254 377.624 348.63 377.624C348.134 377.624 347.75 377.504 347.478 377.264C347.206 377.008 347.07 376.6 347.07 376.04V369.824ZM365.874 373.664C365.874 372.752 365.706 371.896 365.37 371.096C365.034 370.296 364.562 369.6 363.954 369.008C363.362 368.4 362.65 367.928 361.818 367.592C361.002 367.24 360.106 367.064 359.13 367.064C358.154 367.064 357.25 367.24 356.418 367.592C355.602 367.944 354.89 368.424 354.282 369.032C353.69 369.624 353.218 370.328 352.866 371.144C352.53 371.944 352.362 372.8 352.362 373.712C352.362 374.624 352.53 375.48 352.866 376.28C353.202 377.064 353.666 377.76 354.258 378.368C354.866 378.96 355.578 379.432 356.394 379.784C357.226 380.12 358.122 380.288 359.082 380.288C360.058 380.288 360.962 380.112 361.794 379.76C362.626 379.408 363.338 378.936 363.93 378.344C364.538 377.736 365.01 377.032 365.346 376.232C365.698 375.432 365.874 374.576 365.874 373.664ZM362.97 373.712C362.97 374.272 362.882 374.8 362.706 375.296C362.53 375.776 362.274 376.2 361.938 376.568C361.602 376.936 361.194 377.232 360.714 377.456C360.25 377.664 359.722 377.768 359.13 377.768C358.57 377.768 358.05 377.664 357.57 377.456C357.106 377.232 356.698 376.936 356.346 376.568C356.01 376.2 355.746 375.768 355.554 375.272C355.362 374.76 355.266 374.224 355.266 373.664C355.266 373.104 355.354 372.584 355.53 372.104C355.706 371.608 355.962 371.176 356.298 370.808C356.634 370.44 357.034 370.152 357.498 369.944C357.978 369.72 358.506 369.608 359.082 369.608C359.658 369.608 360.178 369.72 360.642 369.944C361.122 370.152 361.53 370.448 361.866 370.832C362.218 371.2 362.49 371.632 362.682 372.128C362.874 372.624 362.97 373.152 362.97 373.712ZM387.835 367.328H384.811L381.523 376.736L377.923 367.328H374.827L380.107 380C379.867 380.56 379.611 380.944 379.339 381.152C379.067 381.36 378.723 381.464 378.307 381.464C378.003 381.464 377.707 381.416 377.419 381.32C377.147 381.24 376.875 381.128 376.603 380.984L375.619 383.144C376.067 383.384 376.523 383.568 376.987 383.696C377.467 383.84 378.011 383.912 378.619 383.912C379.131 383.912 379.587 383.848 379.987 383.72C380.387 383.592 380.755 383.384 381.091 383.096C381.427 382.824 381.731 382.464 382.003 382.016C382.275 381.568 382.539 381.016 382.795 380.36L387.835 367.328ZM402.413 373.664C402.413 372.752 402.245 371.896 401.909 371.096C401.573 370.296 401.101 369.6 400.493 369.008C399.901 368.4 399.189 367.928 398.357 367.592C397.541 367.24 396.645 367.064 395.669 367.064C394.693 367.064 393.789 367.24 392.957 367.592C392.141 367.944 391.429 368.424 390.821 369.032C390.229 369.624 389.757 370.328 389.405 371.144C389.069 371.944 388.901 372.8 388.901 373.712C388.901 374.624 389.069 375.48 389.405 376.28C389.741 377.064 390.205 377.76 390.797 378.368C391.405 378.96 392.117 379.432 392.933 379.784C393.765 380.12 394.661 380.288 395.621 380.288C396.597 380.288 397.501 380.112 398.333 379.76C399.165 379.408 399.877 378.936 400.469 378.344C401.077 377.736 401.549 377.032 401.885 376.232C402.237 375.432 402.413 374.576 402.413 373.664ZM399.509 373.712C399.509 374.272 399.421 374.8 399.245 375.296C399.069 375.776 398.813 376.2 398.477 376.568C398.141 376.936 397.733 377.232 397.253 377.456C396.789 377.664 396.261 377.768 395.669 377.768C395.109 377.768 394.589 377.664 394.109 377.456C393.645 377.232 393.237 376.936 392.885 376.568C392.549 376.2 392.285 375.768 392.093 375.272C391.901 374.76 391.805 374.224 391.805 373.664C391.805 373.104 391.893 372.584 392.069 372.104C392.245 371.608 392.501 371.176 392.837 370.808C393.173 370.44 393.573 370.152 394.037 369.944C394.517 369.72 395.045 369.608 395.621 369.608C396.197 369.608 396.717 369.72 397.181 369.944C397.661 370.152 398.069 370.448 398.405 370.832C398.757 371.2 399.029 371.632 399.221 372.128C399.413 372.624 399.509 373.152 399.509 373.712ZM413.699 374.48C413.699 375.472 413.435 376.248 412.907 376.808C412.379 377.352 411.691 377.624 410.843 377.624C409.979 377.624 409.307 377.36 408.827 376.832C408.363 376.288 408.131 375.52 408.131 374.528V367.328H405.227V375.392C405.227 376.88 405.619 378.064 406.403 378.944C407.187 379.824 408.299 380.264 409.739 380.264C410.715 380.264 411.515 380.048 412.139 379.616C412.763 379.168 413.283 378.64 413.699 378.032V380H416.603V367.328H413.699V374.48ZM438.081 380V372.488C438.081 370.792 437.625 369.48 436.713 368.552C435.801 367.608 434.401 367.136 432.513 367.136C431.473 367.136 430.585 367.232 429.849 367.424C429.113 367.616 428.393 367.872 427.689 368.192L428.481 370.52C429.057 370.28 429.625 370.088 430.185 369.944C430.745 369.8 431.385 369.728 432.105 369.728C433.113 369.728 433.881 369.96 434.409 370.424C434.953 370.888 435.225 371.56 435.225 372.44V372.752C434.729 372.592 434.209 372.464 433.665 372.368C433.137 372.272 432.489 372.224 431.721 372.224C430.985 372.224 430.297 372.312 429.657 372.488C429.033 372.648 428.489 372.896 428.025 373.232C427.577 373.568 427.225 373.992 426.969 374.504C426.713 375.016 426.585 375.616 426.585 376.304V376.352C426.585 376.992 426.705 377.56 426.945 378.056C427.201 378.536 427.529 378.944 427.929 379.28C428.345 379.6 428.825 379.84 429.369 380C429.913 380.176 430.489 380.264 431.097 380.264C432.057 380.264 432.873 380.088 433.545 379.736C434.217 379.384 434.769 378.952 435.201 378.44V380H438.081ZM435.273 375.416C435.273 375.816 435.185 376.184 435.009 376.52C434.849 376.84 434.617 377.12 434.313 377.36C434.009 377.584 433.649 377.76 433.233 377.888C432.833 378.016 432.393 378.08 431.913 378.08C431.225 378.08 430.641 377.92 430.161 377.6C429.697 377.28 429.465 376.816 429.465 376.208V376.16C429.465 375.504 429.721 375 430.233 374.648C430.745 374.296 431.457 374.12 432.369 374.12C432.929 374.12 433.457 374.168 433.953 374.264C434.465 374.36 434.905 374.48 435.273 374.624V375.416ZM444.922 369.824H448.33V367.328H444.922V363.848H442.018V367.328H440.41V369.824H442.018V376.496C442.018 377.2 442.106 377.792 442.282 378.272C442.458 378.736 442.706 379.112 443.026 379.4C443.362 379.688 443.754 379.896 444.202 380.024C444.65 380.152 445.138 380.216 445.666 380.216C446.21 380.216 446.69 380.16 447.106 380.048C447.522 379.936 447.914 379.776 448.282 379.568V377.192C447.706 377.48 447.106 377.624 446.482 377.624C445.986 377.624 445.602 377.504 445.33 377.264C445.058 377.008 444.922 376.6 444.922 376.04V369.824ZM461.961 369.824H465.369V367.328H461.961V363.848H459.057V367.328H457.449V369.824H459.057V376.496C459.057 377.2 459.145 377.792 459.321 378.272C459.497 378.736 459.745 379.112 460.065 379.4C460.401 379.688 460.793 379.896 461.241 380.024C461.689 380.152 462.177 380.216 462.705 380.216C463.249 380.216 463.729 380.16 464.145 380.048C464.561 379.936 464.953 379.776 465.321 379.568V377.192C464.745 377.48 464.145 377.624 463.521 377.624C463.025 377.624 462.641 377.504 462.369 377.264C462.097 377.008 461.961 376.6 461.961 376.04V369.824ZM471.205 372.848C471.205 371.856 471.469 371.088 471.997 370.544C472.525 369.984 473.213 369.704 474.061 369.704C474.925 369.704 475.589 369.976 476.053 370.52C476.533 371.048 476.773 371.808 476.773 372.8V380H479.677V371.936C479.677 370.448 479.285 369.264 478.501 368.384C477.717 367.504 476.605 367.064 475.165 367.064C474.669 367.064 474.221 367.128 473.821 367.256C473.437 367.368 473.077 367.528 472.741 367.736C472.421 367.944 472.133 368.184 471.877 368.456C471.637 368.712 471.413 368.992 471.205 369.296V362.48H468.301V380H471.205V372.848ZM485.391 374.696H494.703C494.719 374.552 494.727 374.416 494.727 374.288C494.743 374.16 494.751 374.032 494.751 373.904C494.751 372.992 494.623 372.12 494.367 371.288C494.111 370.456 493.727 369.728 493.215 369.104C492.719 368.48 492.087 367.984 491.319 367.616C490.567 367.248 489.687 367.064 488.679 367.064C487.767 367.064 486.935 367.24 486.183 367.592C485.431 367.944 484.775 368.424 484.215 369.032C483.671 369.624 483.247 370.32 482.943 371.12C482.639 371.92 482.487 372.776 482.487 373.688C482.487 374.68 482.655 375.584 482.991 376.4C483.327 377.2 483.783 377.888 484.359 378.464C484.951 379.04 485.639 379.488 486.423 379.808C487.223 380.128 488.079 380.288 488.991 380.288C490.159 380.288 491.159 380.072 491.991 379.64C492.839 379.208 493.567 378.632 494.175 377.912L492.471 376.4C491.959 376.896 491.439 377.272 490.911 377.528C490.383 377.784 489.759 377.912 489.039 377.912C488.095 377.912 487.295 377.64 486.639 377.096C485.983 376.536 485.567 375.736 485.391 374.696ZM485.367 372.776C485.495 371.784 485.847 370.984 486.423 370.376C487.015 369.752 487.759 369.44 488.655 369.44C489.135 369.44 489.559 369.528 489.927 369.704C490.311 369.88 490.639 370.12 490.911 370.424C491.183 370.712 491.399 371.064 491.559 371.48C491.719 371.88 491.823 372.312 491.871 372.776H485.367ZM508.367 369.824H511.775V367.328H508.367V363.848H505.463V367.328H503.855V369.824H505.463V376.496C505.463 377.2 505.551 377.792 505.727 378.272C505.903 378.736 506.151 379.112 506.471 379.4C506.807 379.688 507.199 379.896 507.647 380.024C508.095 380.152 508.583 380.216 509.111 380.216C509.655 380.216 510.135 380.16 510.551 380.048C510.967 379.936 511.359 379.776 511.727 379.568V377.192C511.151 377.48 510.551 377.624 509.927 377.624C509.431 377.624 509.047 377.504 508.775 377.264C508.503 377.008 508.367 376.6 508.367 376.04V369.824ZM525.339 380V372.488C525.339 370.792 524.883 369.48 523.971 368.552C523.059 367.608 521.659 367.136 519.771 367.136C518.731 367.136 517.843 367.232 517.107 367.424C516.371 367.616 515.651 367.872 514.947 368.192L515.739 370.52C516.315 370.28 516.883 370.088 517.443 369.944C518.003 369.8 518.643 369.728 519.363 369.728C520.371 369.728 521.139 369.96 521.667 370.424C522.211 370.888 522.483 371.56 522.483 372.44V372.752C521.987 372.592 521.467 372.464 520.923 372.368C520.395 372.272 519.747 372.224 518.979 372.224C518.243 372.224 517.555 372.312 516.915 372.488C516.291 372.648 515.747 372.896 515.283 373.232C514.835 373.568 514.483 373.992 514.227 374.504C513.971 375.016 513.843 375.616 513.843 376.304V376.352C513.843 376.992 513.963 377.56 514.203 378.056C514.459 378.536 514.787 378.944 515.187 379.28C515.603 379.6 516.083 379.84 516.627 380C517.171 380.176 517.747 380.264 518.355 380.264C519.315 380.264 520.131 380.088 520.803 379.736C521.475 379.384 522.027 378.952 522.459 378.44V380H525.339ZM522.531 375.416C522.531 375.816 522.443 376.184 522.267 376.52C522.107 376.84 521.875 377.12 521.571 377.36C521.267 377.584 520.907 377.76 520.491 377.888C520.091 378.016 519.651 378.08 519.171 378.08C518.483 378.08 517.899 377.92 517.419 377.6C516.955 377.28 516.723 376.816 516.723 376.208V376.16C516.723 375.504 516.979 375 517.491 374.648C518.003 374.296 518.715 374.12 519.627 374.12C520.187 374.12 520.715 374.168 521.211 374.264C521.723 374.36 522.163 374.48 522.531 374.624V375.416ZM541.897 373.664C541.897 372.608 541.729 371.672 541.393 370.856C541.057 370.04 540.609 369.352 540.049 368.792C539.505 368.216 538.881 367.784 538.177 367.496C537.473 367.208 536.745 367.064 535.993 367.064C534.969 367.064 534.113 367.296 533.425 367.76C532.737 368.208 532.161 368.768 531.697 369.44V367.328H528.793V383.84H531.697V378.032C532.145 378.624 532.713 379.144 533.401 379.592C534.089 380.04 534.953 380.264 535.993 380.264C536.745 380.264 537.473 380.12 538.177 379.832C538.897 379.544 539.529 379.12 540.073 378.56C540.633 377.984 541.073 377.288 541.393 376.472C541.729 375.656 541.897 374.72 541.897 373.664ZM538.945 373.664C538.945 374.288 538.849 374.856 538.657 375.368C538.465 375.864 538.201 376.288 537.865 376.64C537.545 376.992 537.161 377.264 536.713 377.456C536.281 377.648 535.817 377.744 535.321 377.744C534.825 377.744 534.353 377.648 533.905 377.456C533.457 377.264 533.065 376.992 532.729 376.64C532.393 376.272 532.121 375.84 531.913 375.344C531.721 374.848 531.625 374.288 531.625 373.664C531.625 373.04 531.721 372.48 531.913 371.984C532.121 371.488 532.393 371.064 532.729 370.712C533.065 370.344 533.457 370.064 533.905 369.872C534.353 369.68 534.825 369.584 535.321 369.584C535.817 369.584 536.281 369.68 536.713 369.872C537.161 370.064 537.545 370.336 537.865 370.688C538.201 371.04 538.465 371.472 538.657 371.984C538.849 372.48 538.945 373.04 538.945 373.664ZM564.882 373.664C564.882 372.752 564.714 371.896 564.378 371.096C564.042 370.296 563.57 369.6 562.962 369.008C562.37 368.4 561.658 367.928 560.826 367.592C560.01 367.24 559.114 367.064 558.138 367.064C557.162 367.064 556.258 367.24 555.426 367.592C554.61 367.944 553.898 368.424 553.29 369.032C552.698 369.624 552.226 370.328 551.874 371.144C551.538 371.944 551.37 372.8 551.37 373.712C551.37 374.624 551.538 375.48 551.874 376.28C552.21 377.064 552.674 377.76 553.266 378.368C553.874 378.96 554.586 379.432 555.402 379.784C556.234 380.12 557.13 380.288 558.09 380.288C559.066 380.288 559.97 380.112 560.802 379.76C561.634 379.408 562.346 378.936 562.938 378.344C563.546 377.736 564.018 377.032 564.354 376.232C564.706 375.432 564.882 374.576 564.882 373.664ZM561.978 373.712C561.978 374.272 561.89 374.8 561.714 375.296C561.538 375.776 561.282 376.2 560.946 376.568C560.61 376.936 560.202 377.232 559.722 377.456C559.258 377.664 558.73 377.768 558.138 377.768C557.578 377.768 557.058 377.664 556.578 377.456C556.114 377.232 555.706 376.936 555.354 376.568C555.018 376.2 554.754 375.768 554.562 375.272C554.37 374.76 554.274 374.224 554.274 373.664C554.274 373.104 554.362 372.584 554.538 372.104C554.714 371.608 554.97 371.176 555.306 370.808C555.642 370.44 556.042 370.152 556.506 369.944C556.986 369.72 557.514 369.608 558.09 369.608C558.666 369.608 559.186 369.72 559.65 369.944C560.13 370.152 560.538 370.448 560.874 370.832C561.226 371.2 561.498 371.632 561.69 372.128C561.882 372.624 561.978 373.152 561.978 373.712ZM571.344 367.424V366.728C571.344 365.448 571.904 364.808 573.024 364.808C573.344 364.808 573.632 364.84 573.888 364.904C574.16 364.952 574.44 365.024 574.728 365.12V362.672C574.408 362.576 574.064 362.496 573.696 362.432C573.328 362.368 572.888 362.336 572.376 362.336C571.128 362.336 570.168 362.68 569.496 363.368C568.824 364.04 568.488 365.08 568.488 366.488V367.4H566.88V369.824H568.488V380H571.392V369.824H574.704V367.424H571.344ZM594.69 380V372.488C594.69 370.792 594.234 369.48 593.322 368.552C592.41 367.608 591.01 367.136 589.122 367.136C588.082 367.136 587.194 367.232 586.458 367.424C585.722 367.616 585.002 367.872 584.298 368.192L585.09 370.52C585.666 370.28 586.234 370.088 586.794 369.944C587.354 369.8 587.994 369.728 588.714 369.728C589.722 369.728 590.49 369.96 591.018 370.424C591.562 370.888 591.834 371.56 591.834 372.44V372.752C591.338 372.592 590.818 372.464 590.274 372.368C589.746 372.272 589.098 372.224 588.33 372.224C587.594 372.224 586.906 372.312 586.266 372.488C585.642 372.648 585.098 372.896 584.634 373.232C584.186 373.568 583.834 373.992 583.578 374.504C583.322 375.016 583.194 375.616 583.194 376.304V376.352C583.194 376.992 583.314 377.56 583.554 378.056C583.81 378.536 584.138 378.944 584.538 379.28C584.954 379.6 585.434 379.84 585.978 380C586.522 380.176 587.098 380.264 587.706 380.264C588.666 380.264 589.482 380.088 590.154 379.736C590.826 379.384 591.378 378.952 591.81 378.44V380H594.69ZM591.882 375.416C591.882 375.816 591.794 376.184 591.618 376.52C591.458 376.84 591.226 377.12 590.922 377.36C590.618 377.584 590.258 377.76 589.842 377.888C589.442 378.016 589.002 378.08 588.522 378.08C587.834 378.08 587.25 377.92 586.77 377.6C586.306 377.28 586.074 376.816 586.074 376.208V376.16C586.074 375.504 586.33 375 586.842 374.648C587.354 374.296 588.066 374.12 588.978 374.12C589.538 374.12 590.066 374.168 590.562 374.264C591.074 374.36 591.514 374.48 591.882 374.624V375.416ZM618.444 373.664C618.444 372.608 618.276 371.672 617.94 370.856C617.604 370.04 617.156 369.352 616.596 368.792C616.052 368.216 615.428 367.784 614.724 367.496C614.02 367.208 613.292 367.064 612.54 367.064C611.516 367.064 610.66 367.296 609.972 367.76C609.284 368.208 608.708 368.768 608.244 369.44V362.48H605.34V380H608.244V378.032C608.692 378.624 609.26 379.144 609.948 379.592C610.636 380.04 611.5 380.264 612.54 380.264C613.292 380.264 614.02 380.12 614.724 379.832C615.444 379.544 616.076 379.12 616.62 378.56C617.18 377.984 617.62 377.288 617.94 376.472C618.276 375.656 618.444 374.72 618.444 373.664ZM615.492 373.664C615.492 374.288 615.396 374.856 615.204 375.368C615.012 375.864 614.748 376.288 614.412 376.64C614.092 376.992 613.708 377.264 613.26 377.456C612.828 377.648 612.364 377.744 611.868 377.744C611.372 377.744 610.9 377.648 610.452 377.456C610.004 377.264 609.612 376.992 609.276 376.64C608.94 376.272 608.668 375.84 608.46 375.344C608.268 374.848 608.172 374.288 608.172 373.664C608.172 373.04 608.268 372.48 608.46 371.984C608.668 371.488 608.94 371.064 609.276 370.712C609.612 370.344 610.004 370.064 610.452 369.872C610.9 369.68 611.372 369.584 611.868 369.584C612.364 369.584 612.828 369.68 613.26 369.872C613.708 370.064 614.092 370.336 614.412 370.688C614.748 371.04 615.012 371.472 615.204 371.984C615.396 372.48 615.492 373.04 615.492 373.664ZM629.746 374.48C629.746 375.472 629.482 376.248 628.954 376.808C628.426 377.352 627.738 377.624 626.89 377.624C626.026 377.624 625.354 377.36 624.874 376.832C624.41 376.288 624.178 375.52 624.178 374.528V367.328H621.274V375.392C621.274 376.88 621.666 378.064 622.45 378.944C623.234 379.824 624.346 380.264 625.786 380.264C626.762 380.264 627.562 380.048 628.186 379.616C628.81 379.168 629.33 378.64 629.746 378.032V380H632.65V367.328H629.746V374.48ZM639.805 369.824H643.213V367.328H639.805V363.848H636.901V367.328H635.293V369.824H636.901V376.496C636.901 377.2 636.989 377.792 637.165 378.272C637.341 378.736 637.589 379.112 637.909 379.4C638.245 379.688 638.637 379.896 639.085 380.024C639.533 380.152 640.021 380.216 640.549 380.216C641.093 380.216 641.573 380.16 641.989 380.048C642.405 379.936 642.797 379.776 643.165 379.568V377.192C642.589 377.48 641.989 377.624 641.365 377.624C640.869 377.624 640.485 377.504 640.213 377.264C639.941 377.008 639.805 376.6 639.805 376.04V369.824ZM649.648 369.824H653.056V367.328H649.648V363.848H646.744V367.328H645.136V369.824H646.744V376.496C646.744 377.2 646.832 377.792 647.008 378.272C647.184 378.736 647.432 379.112 647.752 379.4C648.088 379.688 648.48 379.896 648.928 380.024C649.376 380.152 649.864 380.216 650.392 380.216C650.936 380.216 651.416 380.16 651.832 380.048C652.248 379.936 652.64 379.776 653.008 379.568V377.192C652.432 377.48 651.832 377.624 651.208 377.624C650.712 377.624 650.328 377.504 650.056 377.264C649.784 377.008 649.648 376.6 649.648 376.04V369.824ZM668.453 373.664C668.453 372.752 668.285 371.896 667.949 371.096C667.613 370.296 667.141 369.6 666.533 369.008C665.941 368.4 665.229 367.928 664.397 367.592C663.581 367.24 662.685 367.064 661.709 367.064C660.733 367.064 659.829 367.24 658.997 367.592C658.181 367.944 657.469 368.424 656.861 369.032C656.269 369.624 655.797 370.328 655.445 371.144C655.109 371.944 654.941 372.8 654.941 373.712C654.941 374.624 655.109 375.48 655.445 376.28C655.781 377.064 656.245 377.76 656.837 378.368C657.445 378.96 658.157 379.432 658.973 379.784C659.805 380.12 660.701 380.288 661.661 380.288C662.637 380.288 663.541 380.112 664.373 379.76C665.205 379.408 665.917 378.936 666.509 378.344C667.117 377.736 667.589 377.032 667.924 376.232C668.277 375.432 668.453 374.576 668.453 373.664ZM665.549 373.712C665.549 374.272 665.461 374.8 665.285 375.296C665.109 375.776 664.853 376.2 664.517 376.568C664.181 376.936 663.773 377.232 663.293 377.456C662.829 377.664 662.301 377.768 661.709 377.768C661.149 377.768 660.628 377.664 660.148 377.456C659.685 377.232 659.277 376.936 658.925 376.568C658.589 376.2 658.325 375.768 658.133 375.272C657.941 374.76 657.845 374.224 657.845 373.664C657.845 373.104 657.933 372.584 658.109 372.104C658.285 371.608 658.541 371.176 658.877 370.808C659.213 370.44 659.613 370.152 660.077 369.944C660.557 369.72 661.085 369.608 661.661 369.608C662.237 369.608 662.757 369.72 663.221 369.944C663.701 370.152 664.109 370.448 664.445 370.832C664.797 371.2 665.069 371.632 665.261 372.128C665.453 372.624 665.549 373.152 665.549 373.712ZM674.314 372.848C674.314 371.856 674.578 371.088 675.106 370.544C675.634 369.984 676.322 369.704 677.17 369.704C678.034 369.704 678.698 369.976 679.162 370.52C679.642 371.048 679.882 371.808 679.882 372.8V380H682.786V371.936C682.786 370.448 682.394 369.264 681.61 368.384C680.826 367.504 679.714 367.064 678.274 367.064C677.778 367.064 677.33 367.128 676.93 367.256C676.546 367.368 676.186 367.528 675.85 367.736C675.53 367.944 675.242 368.184 674.986 368.456C674.746 368.712 674.522 368.992 674.314 369.296V367.328H671.41V380H674.314V372.848Z" fill="white"/>
<g filter="url(#filter1_d)">
<rect x="84" y="464" width="676" height="79" fill="url(#paint0_linear)"/>
<rect x="85" y="465" width="674" height="77" stroke="#09D3FF" stroke-width="2"/>
</g>
<path d="M133.504 516.379C132.66 516.379 131.859 516.297 131.102 516.133V512.535C131.352 512.582 131.617 512.633 131.898 512.688C132.18 512.75 132.484 512.781 132.812 512.781C133.578 512.781 134.125 512.551 134.453 512.09C134.781 511.629 134.945 510.84 134.945 509.723V493.867H139.598V509.324C139.598 511.645 139.09 513.398 138.074 514.586C137.059 515.781 135.535 516.379 133.504 516.379ZM180.944 502.41C180.944 505.293 180.237 507.484 178.823 508.984C177.409 510.484 175.338 511.234 172.612 511.234C169.924 511.234 167.862 510.48 166.424 508.973C164.995 507.465 164.28 505.27 164.28 502.387C164.28 499.535 164.991 497.359 166.413 495.859C167.842 494.352 169.916 493.598 172.635 493.598C175.362 493.598 177.428 494.344 178.834 495.836C180.241 497.328 180.944 499.52 180.944 502.41ZM169.155 502.41C169.155 505.723 170.307 507.379 172.612 507.379C173.784 507.379 174.651 506.977 175.213 506.172C175.784 505.367 176.069 504.113 176.069 502.41C176.069 500.699 175.78 499.438 175.202 498.625C174.631 497.805 173.776 497.395 172.635 497.395C170.315 497.395 169.155 499.066 169.155 502.41ZM205.637 511V493.867H210.29V511H205.637ZM251.917 511H245.847L239.589 498.93H239.484C239.632 500.828 239.706 502.277 239.706 503.277V511H235.605V493.867H241.652L247.886 505.773H247.956C247.847 504.047 247.792 502.66 247.792 501.613V493.867H251.917V511ZM312.613 511H307.984V497.652H303.801V493.867H316.785V497.652H312.613V511ZM355.518 511H350.866V504.016H345.487V511H340.834V493.867H345.487V500.219H350.866V493.867H355.518V511ZM391.005 511H380.833V493.867H391.005V497.582H385.462V500.277H390.595V503.992H385.462V507.227H391.005V511ZM461.943 511H456.47L454.83 503.535C454.752 503.223 454.627 502.602 454.455 501.672C454.291 500.742 454.17 499.965 454.091 499.34C454.029 499.848 453.927 500.48 453.787 501.238C453.646 501.988 453.505 502.68 453.365 503.312C453.232 503.945 452.666 506.508 451.666 511H446.193L441.951 493.867H446.416L448.279 502.457C448.701 504.355 448.99 505.867 449.146 506.992C449.248 506.195 449.427 505.113 449.685 503.746C449.951 502.379 450.197 501.246 450.423 500.348L451.935 493.867H456.224L457.689 500.348C457.939 501.387 458.193 502.586 458.451 503.945C458.709 505.305 458.88 506.32 458.966 506.992C459.068 506.125 459.345 504.621 459.798 502.48L461.697 493.867H466.162L461.943 511ZM500.488 511L499.645 507.789H494.078L493.211 511H488.125L493.715 493.797H499.891L505.551 511H500.488ZM498.684 503.992L497.945 501.18C497.773 500.555 497.562 499.746 497.312 498.754C497.07 497.762 496.91 497.051 496.832 496.621C496.762 497.02 496.621 497.676 496.41 498.59C496.207 499.504 495.75 501.305 495.039 503.992H498.684ZM529.014 511V493.867H533.666V511H529.014ZM566.54 511H561.911V497.652H557.727V493.867H570.712V497.652H566.54V511ZM594.761 511V493.867H599.39V507.262H605.988V511H594.761ZM630.33 511V493.867H634.982V511H630.33ZM671.5 505.797C671.5 506.859 671.23 507.805 670.691 508.633C670.152 509.453 669.375 510.094 668.359 510.555C667.344 511.008 666.152 511.234 664.785 511.234C663.645 511.234 662.688 511.156 661.914 511C661.141 510.836 660.336 510.555 659.5 510.156V506.031C660.383 506.484 661.301 506.84 662.254 507.098C663.207 507.348 664.082 507.473 664.879 507.473C665.566 507.473 666.07 507.355 666.391 507.121C666.711 506.879 666.871 506.57 666.871 506.195C666.871 505.961 666.805 505.758 666.672 505.586C666.547 505.406 666.34 505.227 666.051 505.047C665.77 504.867 665.012 504.5 663.777 503.945C662.66 503.438 661.82 502.945 661.258 502.469C660.703 501.992 660.289 501.445 660.016 500.828C659.75 500.211 659.617 499.48 659.617 498.637C659.617 497.059 660.191 495.828 661.34 494.945C662.488 494.062 664.066 493.621 666.074 493.621C667.848 493.621 669.656 494.031 671.5 494.852L670.082 498.426C668.48 497.691 667.098 497.324 665.934 497.324C665.332 497.324 664.895 497.43 664.621 497.641C664.348 497.852 664.211 498.113 664.211 498.426C664.211 498.762 664.383 499.062 664.727 499.328C665.078 499.594 666.023 500.078 667.562 500.781C669.039 501.445 670.062 502.16 670.633 502.926C671.211 503.684 671.5 504.641 671.5 505.797ZM703.307 511H698.678V497.652H694.495V493.867H707.479V497.652H703.307V511Z" fill="white"/>
<defs>
<filter id="filter0_f" x="0" y="40" width="838" height="178" filterUnits="userSpaceOnUse" color-interpolation-filters="sRGB">
<feFlood flood-opacity="0" result="BackgroundImageFix"/>
<feBlend mode="normal" in="SourceGraphic" in2="BackgroundImageFix" result="shape"/>
<feGaussianBlur stdDeviation="30" result="effect1_foregroundBlur"/>
</filter>
<filter id="filter1_d" x="24" y="404" width="796" height="199" filterUnits="userSpaceOnUse" color-interpolation-filters="sRGB">
<feFlood flood-opacity="0" result="BackgroundImageFix"/>
<feColorMatrix in="SourceAlpha" type="matrix" values="0 0 0 0 0 0 0 0 0 0 0 0 0 0 0 0 0 0 127 0" result="hardAlpha"/>
<feOffset/>
<feGaussianBlur stdDeviation="30"/>
<feComposite in2="hardAlpha" operator="out"/>
<feColorMatrix type="matrix" values="0 0 0 0 0 0 0 0 0 0.28 0 0 0 0 1 0 0 0 1 0"/>
<feBlend mode="normal" in2="BackgroundImageFix" result="effect1_dropShadow"/>
<feBlend mode="normal" in="SourceGraphic" in2="effect1_dropShadow" result="shape"/>
</filter>
<linearGradient id="paint0_linear" x1="724" y1="464" x2="14" y2="543" gradientUnits="userSpaceOnUse">
<stop stop-color="#6100FF"/>
<stop offset="0.994792" stop-color="#2400FF"/>
</linearGradient>
</defs>
</svg>
