<?xml version="1.0" encoding="utf-8"?>
<!-- Generator: Adobe Illustrator 23.0.0, SVG Export Plug-In . SVG Version: 6.00 Build 0)  -->
<svg version="1.1" id="Layer_1" xmlns="http://www.w3.org/2000/svg" xmlns:xlink="http://www.w3.org/1999/xlink" x="0px" y="0px"
	 viewBox="0 0 894.6 886.5" style="enable-background:new 0 0 894.6 886.5;" xml:space="preserve">
<style type="text/css">
	.st0{clip-path:url(#SVGID_2_);}
	.st1{clip-path:url(#SVGID_4_);}
	.st2{opacity:3.000000e-02;fill:none;stroke:#221152;stroke-width:1.37;stroke-miterlimit:10;enable-background:new    ;}
	.st3{opacity:5.000000e-02;fill:none;stroke:#221152;stroke-width:1.37;stroke-miterlimit:10;enable-background:new    ;}
	.st4{opacity:7.000000e-02;fill:none;stroke:#221152;stroke-width:1.37;stroke-miterlimit:10;enable-background:new    ;}
	.st5{opacity:0.1;fill:none;stroke:#221152;stroke-width:1.37;stroke-miterlimit:10;enable-background:new    ;}
	.st6{opacity:0.13;fill:none;stroke:#221152;stroke-width:1.37;stroke-miterlimit:10;enable-background:new    ;}
	.st7{opacity:0.15;fill:none;stroke:#221152;stroke-width:1.37;stroke-miterlimit:10;enable-background:new    ;}
	.st8{opacity:0.18;fill:none;stroke:#221152;stroke-width:1.37;stroke-miterlimit:10;enable-background:new    ;}
	.st9{opacity:0.2;fill:none;stroke:#221152;stroke-width:1.37;stroke-miterlimit:10;enable-background:new    ;}
	.st10{opacity:0.23;fill:none;stroke:#221152;stroke-width:1.37;stroke-miterlimit:10;enable-background:new    ;}
	.st11{opacity:0.25;fill:none;stroke:#221152;stroke-width:1.37;stroke-miterlimit:10;enable-background:new    ;}
	.st12{opacity:0.28;fill:none;stroke:#221152;stroke-width:1.37;stroke-miterlimit:10;enable-background:new    ;}
	.st13{opacity:0.3;fill:none;stroke:#221152;stroke-width:1.37;stroke-miterlimit:10;enable-background:new    ;}
	.st14{opacity:0.33;fill:none;stroke:#221152;stroke-width:1.37;stroke-miterlimit:10;enable-background:new    ;}
	.st15{opacity:0.35;fill:none;stroke:#1A1244;stroke-width:1.37;stroke-miterlimit:10;enable-background:new    ;}
	.st16{opacity:0.38;fill:none;stroke:#221152;stroke-width:1.37;stroke-miterlimit:10;enable-background:new    ;}
	.st17{opacity:0.4;fill:none;stroke:#221152;stroke-width:1.37;stroke-miterlimit:10;enable-background:new    ;}
	.st18{clip-path:url(#SVGID_6_);}
	.st19{fill:none;stroke:#540F25;stroke-width:1.37;stroke-miterlimit:10;}
	.st20{opacity:0.94;}
	.st21{fill:none;stroke:#500F29;stroke-width:1.37;stroke-miterlimit:10;}
	.st22{opacity:0.88;}
	.st23{fill:none;stroke:#47102B;stroke-width:1.37;stroke-miterlimit:10;}
	.st24{opacity:0.81;}
	.st25{fill:none;stroke:#35122C;stroke-width:1.37;stroke-miterlimit:10;}
	.st26{opacity:0.75;}
	.st27{fill:none;stroke:#3C112A;stroke-width:1.37;stroke-miterlimit:10;}
	.st28{opacity:0.69;}
	.st29{fill:none;stroke:#2D122D;stroke-width:1.37;stroke-miterlimit:10;}
	.st30{opacity:0.63;}
	.st31{fill:none;stroke:#31112C;stroke-width:1.37;stroke-miterlimit:10;}
	.st32{opacity:0.56;}
	.st33{fill:none;stroke:#24132D;stroke-width:1.37;stroke-miterlimit:10;}
	.st34{opacity:0.5;}
	.st35{fill:none;stroke:#2A122B;stroke-width:1.37;stroke-miterlimit:10;}
	.st36{opacity:0.44;}
	.st37{fill:none;stroke:#29122C;stroke-width:1.37;stroke-miterlimit:10;}
	.st38{opacity:0.38;}
	.st39{fill:none;stroke:#1B152E;stroke-width:1.37;stroke-miterlimit:10;}
	.st40{opacity:0.31;}
	.st41{fill:none;stroke:#20152D;stroke-width:1.37;stroke-miterlimit:10;}
	.st42{opacity:0.25;}
	.st43{fill:none;stroke:#1E1332;stroke-width:1.37;stroke-miterlimit:10;}
	.st44{opacity:0.19;}
	.st45{fill:none;stroke:#201237;stroke-width:1.37;stroke-miterlimit:10;}
	.st46{opacity:0.13;}
	.st47{fill:none;stroke:#221136;stroke-width:1.37;stroke-miterlimit:10;}
	.st48{opacity:4.000000e-02;fill:none;stroke:#F5FCFC;stroke-width:1.37;stroke-miterlimit:10;enable-background:new    ;}
	.st49{opacity:7.000000e-02;fill:none;stroke:#EBFCFC;stroke-width:1.37;stroke-miterlimit:10;enable-background:new    ;}
	.st50{opacity:0.11;fill:none;stroke:#DEFDFF;stroke-width:1.37;stroke-miterlimit:10;enable-background:new    ;}
	.st51{opacity:0.15;fill:none;stroke:#D0FAFC;stroke-width:1.37;stroke-miterlimit:10;enable-background:new    ;}
	.st52{opacity:0.19;fill:none;stroke:#BBF9FC;stroke-width:1.37;stroke-miterlimit:10;enable-background:new    ;}
	.st53{opacity:0.23;fill:none;stroke:#ABFBFF;stroke-width:1.37;stroke-miterlimit:10;enable-background:new    ;}
	.st54{opacity:0.26;fill:none;stroke:#A9F8FC;stroke-width:1.37;stroke-miterlimit:10;enable-background:new    ;}
	.st55{opacity:0.3;fill:none;stroke:#8BF7FC;stroke-width:1.37;stroke-miterlimit:10;enable-background:new    ;}
	.st56{opacity:0.34;fill:none;stroke:#83F1FC;stroke-width:1.37;stroke-miterlimit:10;enable-background:new    ;}
	.st57{opacity:0.38;fill:none;stroke:#7AECFC;stroke-width:1.37;stroke-miterlimit:10;enable-background:new    ;}
	.st58{opacity:0.41;fill:none;stroke:#65F5FC;stroke-width:1.37;stroke-miterlimit:10;enable-background:new    ;}
	.st59{opacity:0.45;fill:none;stroke:#56ECFC;stroke-width:1.37;stroke-miterlimit:10;enable-background:new    ;}
	.st60{opacity:0.49;fill:none;stroke:#42EAFC;stroke-width:1.37;stroke-miterlimit:10;enable-background:new    ;}
	.st61{opacity:0.53;fill:none;stroke:#2EEBFF;stroke-width:1.37;stroke-miterlimit:10;enable-background:new    ;}
	.st62{opacity:0.56;fill:none;stroke:#12DBFC;stroke-width:1.37;stroke-miterlimit:10;enable-background:new    ;}
	.st63{opacity:0.6;fill:none;stroke:#00D1FF;stroke-width:1.37;stroke-miterlimit:10;enable-background:new    ;}
	.st64{fill:#FFFFFF;}
</style>
<g>
	<defs>
		<rect id="SVGID_1_" width="894.6" height="886.5"/>
	</defs>
	<clipPath id="SVGID_2_">
		<use xlink:href="#SVGID_1_"  style="overflow:visible;"/>
	</clipPath>
	<g class="st0">
		<defs>
			
				<rect id="SVGID_3_" x="102.7" y="-192.3" transform="matrix(0.5121 -0.8589 0.8589 0.5121 -103.1948 651.8172)" width="839" height="1218.1"/>
		</defs>
		<clipPath id="SVGID_4_">
			<use xlink:href="#SVGID_3_"  style="overflow:visible;"/>
		</clipPath>
		<g class="st1">
			<path class="st2" d="M150.2,419.5C-301.6,82.7,590.3-111.8,573.8,224c-8.2,167,370.8,199.5,313.1,354
				c-57.7,154.5-211.5,83.5-391.4,104.1C271.2,708.8,269.7,508.6,150.2,419.5z"/>
			<path class="st3" d="M144,426C-275,92.6,563.1-112.7,575.7,217.1c6.2,162.4,369.7,225.9,303,371.3
				c-66.4,145.4-219.6,88.2-392.1,96.5C271.6,695.3,257.9,516.6,144,426z"/>
			<path class="st4" d="M137.8,432.5c-386.2-329.3,397.8-546.6,439.7-222.4c20.4,157.5,368.6,252.3,293,388.6
				c-75.2,136.3-227.5,93.3-392.8,89C272.1,682.3,246.1,524.9,137.8,432.5z"/>
			<path class="st5" d="M131.6,439.1c-353.7-324.3,376-555.1,447.9-235.9C613.8,355.5,947,481.8,862.4,609
				c-84.1,127.1-235.3,98.4-393.5,81.4C272.8,669.3,234.4,533.4,131.6,439.1z"/>
			<path class="st6" d="M125.4,445.6c-321.5-318.4,353.6-563.8,456-249.4c47.9,147.1,366.4,305.1,272.9,423.1
				c-92.9,118-243.1,103.5-394.2,73.8C273.5,656.4,222.7,542,125.4,445.6z"/>
			<path class="st7" d="M119.1,452.1c-289.7-311.5,330.5-572.8,464.1-262.9C644.4,331,948.6,520.7,846.1,629.6
				c-101.7,108.9-250.8,108.8-394.8,66.2C274.3,643.6,211,550.9,119.1,452.1z"/>
			<path class="st8" d="M112.9,458.7C-145.6,155,419.6-123,585.1,182.3c74,136.4,364.2,357.9,252.8,457.6
				C727.3,739.7,579.4,754,442.4,698.6C275.1,630.9,199.3,560.1,112.9,458.7z"/>
			<path class="st9" d="M106.7,465.2C-121.4,170.3,388.8-125.2,587,175.3c86.5,131.2,363.2,384.2,242.7,475
				c-119.4,90.6-266.2,119.5-396.2,51.1C275.9,618.4,187.4,569.5,106.7,465.2z"/>
			<path class="st10" d="M100.5,471.7C-98,186.4,357.5-127,589,168.3C687.8,294.5,951,579,821.6,660.6
				c-128.3,81.5-273.9,125.1-396.9,43.5C276.6,606,175.2,579.2,100.5,471.7z"/>
			<path class="st11" d="M94.3,478.3c-170-275,231.5-606.5,496.6-316.9c111,121.3,361,437,222.6,509.5
				c-137.1,72.4-281.8,130.7-397.6,36C277.3,593.6,162.8,589.1,94.3,478.3z"/>
			<path class="st12" d="M88.1,484.8C-54.6,220.6,293.8-129,592.7,154.4c123.1,116.7,359.9,463.4,212.5,526.8
				c-146,63.2-289.7,136.3-398.3,28.4C277.8,581.3,149.8,599.2,88.1,484.8z"/>
			<path class="st13" d="M81.9,491.3C-34.7,238.2,261.7-129.1,594.6,147.5c135.2,112.3,358.8,489.8,202.5,544.1
				c-154.8,54.1-297.7,142-399,20.8C278.3,569,136.2,609.4,81.9,491.3z"/>
			<path class="st14" d="M75.6,497.9c-91.8-242.1,154-626.6,520.9-357.4c147.3,108.1,357.7,516.2,192.4,561.3
				c-163.7,45-305.8,147.6-399.7,13.2C278.6,556.7,121.8,619.8,75.6,497.9z"/>
			<path class="st15" d="M69.4,504.4C1,272.9,197.8-128,598.4,133.5C758,237.6,955.1,676.1,780.8,712.2
				c-172.5,35.9-314,153.2-400.4,5.7C278.8,544.3,106.5,630,69.4,504.4z"/>
			<path class="st16" d="M63.2,510.9C17,289.2,166-126.8,600.3,126.6c171.8,100.2,355.6,569,172.3,595.9
				c-181.4,26.7-322.2,158.7-401.1-1.9C279,531.9,90.1,640,63.2,510.9z"/>
			<path class="st17" d="M57,517.5c-25.1-213.2,77.5-642.8,545.3-397.9C786.4,216.1,956.7,715,764.5,732.8
				c-190.2,17.6-330.5,164.2-401.8-9.5C279.1,519.4,72.5,649.6,57,517.5z"/>
		</g>
	</g>
	<g class="st0">
		<defs>
			
				<rect id="SVGID_5_" x="65.3" y="65.8" transform="matrix(0.7554 -0.6553 0.6553 0.7554 -176.2427 407.012)" width="783.5" height="747.4"/>
		</defs>
		<clipPath id="SVGID_6_">
			<use xlink:href="#SVGID_5_"  style="overflow:visible;"/>
		</clipPath>
		<g class="st18">
			<path class="st19" d="M248,589.2c-161.8,491.5,655.6,223.3,418.7-35.8c-118.6-129.7,175.8-305.9,42.4-417.7
				c-133.4-111.8-198.7,26.6-358.6,82.1C150.8,287.1,289.8,462.2,248,589.2z"/>
			<g class="st20">
				<path class="st21" d="M239.5,586.6c-138.8,475.3,644.3,238.2,432.8-28.4c-105.1-132.5,159.3-327,24.6-427.4
					c-134.7-100.4-207.8,25.7-354.6,88.6C158.7,297.1,276.1,461.1,239.5,586.6z"/>
			</g>
			<g class="st22">
				<path class="st23" d="M231,584c-116.3,458.5,633.1,253.8,446.9-21c-91.4-134.9,142.9-348,6.9-437
					c-135.8-89.1-216.6,25.4-350.7,95C167,307.9,262.4,460,231,584z"/>
			</g>
			<g class="st24">
				<path class="st25" d="M222.4,581.5c-94.3,441.2,622.1,270.1,460.9-13.6c-77.9-137,126.5-369-10.9-446.6
					C535.4,43.5,447,146,325.8,222.8C175.1,318.2,248.7,458.6,222.4,581.5z"/>
			</g>
			<g class="st26">
				<path class="st27" d="M213.9,578.9c-72.9,423.3,610.9,287,475-6.2C628.6,442.5,778,213.6,682.7,131
					c-6.9-5.9-14.5-10.8-22.5-14.5c-138.2-66.4-234.4,24.1-342.7,108C183.2,328.5,234.9,457.1,213.9,578.9z"/>
			</g>
			<g class="st28">
				<path class="st29" d="M205.4,576.3c-52.2,404.7,599.3,304.5,489.1,1.3C643.4,437.1,788,166.5,648,111.7
					c-139.5-55-243.3,23.3-338.8,114.5C191.4,338.7,221,455.4,205.4,576.3z"/>
			</g>
			<g class="st30">
				<path class="st31" d="M196.9,573.7C164.6,959.3,784.1,896,700,582.4c-38.1-141.9,77-432.1-64.2-475.5
					c-140.7-43.7-252.2,22.5-334.8,121C199.5,348.9,206.9,453.5,196.9,573.7z"/>
			</g>
			<g class="st32">
				<path class="st33" d="M188.3,571.2c-13.4,365.7,574.6,340.2,517.2,16.1c-25.3-143.2,60.6-453.2-82-485.1
					c-141.9-32.3-261.2,21.5-330.9,127.4C207.6,358.9,192.7,451.5,188.3,571.2z"/>
			</g>
			<g class="st34">
				<path class="st35" d="M179.8,568.6C184.3,914,741,926.8,711.1,592.1c-12.9-144.5,44.2-474.2-99.7-494.8
					c-143.1-21-270.1,20.6-326.9,133.9C215.6,368.8,178.3,449.3,179.8,568.6z"/>
			</g>
			<g class="st36">
				<path class="st37" d="M171.3,566c21.1,324.6,547.2,375.9,545.4,30.9C715.9,451,744.4,101.6,599.1,92.5
					C454.8,82.9,320,112.1,276.3,232.9C223.6,378.7,163.6,446.9,171.3,566z"/>
			</g>
			<g class="st38">
				<path class="st39" d="M162.8,563.5c36.5,303.5,532.6,393.4,559.4,38.3c11.2-147.5,11.3-516.3-135.3-514
					C441.4,89.5,298.6,106.2,268,234.6C231.4,388.5,148.4,444.4,162.8,563.5z"/>
			</g>
			<g class="st40">
				<path class="st41" d="M154.2,560.9c50.8,282.3,517.5,410.3,573.5,45.7c22.9-149.2-5.2-537.3-153-523.6
					C428,96.1,277.1,100.4,259.8,236.3C239.1,398.3,132.8,441.9,154.2,560.9z"/>
			</g>
			<g class="st42">
				<path class="st43" d="M145.7,558.3c63.8,261.2,502,426.9,587.6,53.1C767.9,460.3,711.6,53,562.5,78.1
					c-148,24.5-306.9,16.4-311,159.9C246.7,408.1,116.7,439.4,145.7,558.3z"/>
			</g>
			<g class="st44">
				<path class="st45" d="M137.2,555.8c75.7,240.6,486.4,443.1,601.6,60.5C785,463,700.8,36.9,550.2,73.3
					c-149.1,35.9-316.3,15.4-307,166.4C254.3,418,99.9,437.1,137.2,555.8z"/>
			</g>
			<g class="st46">
				<path class="st47" d="M128.7,553.2c86.8,220.7,470.6,458.9,615.7,67.9C802.1,465.6,689.9,20.7,538,68.5
					C387.7,115.8,212.3,82.9,235,241.3C261.8,427.9,82.3,435.2,128.7,553.2z"/>
			</g>
		</g>
	</g>
	<g class="st0">
		<path class="st48" d="M605.6,599.3c368,34,61.4-529.8-95.3-327.3c-78,100.7-264.6-72.3-314.1,46.2s54.5,155.3,125.5,258.3
			C409.7,705.3,508.2,590.3,605.6,599.3z"/>
		<path class="st49" d="M605.2,606.2c351.4,19.3,74.4-523.4-92.4-339.3c-82.2,90.8-277-56.5-318.1,61.3
			c-41.2,117.6,55.8,162.2,129.5,254.3C416.1,697.4,509.5,601,605.2,606.2z"/>
		<path class="st50" d="M604.9,613.1c334.4,5.1,87.8-517.2-89.4-351.2c-86.2,80.8-289.4-40.7-322,76.3
			C160.7,455.2,250.4,507.4,327,588.6C422.3,689.6,510.7,611.7,604.9,613.1z"/>
		<path class="st51" d="M604.5,620.1c317.1-8.4,101.6-511-86.4-363.1c-90.1,70.9-301.8-24.9-325.9,91.5
			c-24.2,116,58,176,137.5,246.2C428.3,681.7,511.8,622.5,604.5,620.1z"/>
		<path class="st52" d="M604.1,627c299.5-21.2,115.9-504.7-83.5-375c-93.7,60.9-314.2-9.1-329.8,106.5
			c-15.8,115.3,58.9,183,141.5,242.2C434.3,673.9,512.8,633.5,604.1,627z"/>
		<path class="st53" d="M603.7,633.9c281.7-33.2,130.6-498.1-80.6-386.9c-97.1,51.1-326.6,6.7-333.7,121.6
			C182,483,249.2,558.5,334.9,606.8C440.2,666.1,513.6,644.5,603.7,633.9z"/>
		<path class="st54" d="M603.3,640.8C867,596.5,748.9,149.6,525.6,242c-100.3,41.5-339,22.5-337.6,136.7
			c1.1,113.6,60.7,196.8,149.5,234.1C446,658.4,514.4,655.8,603.3,640.8z"/>
		<path class="st55" d="M602.9,647.8c245.7-54.6,160.9-483.9-74.7-410.7c-103.4,32.1-351.4,38.3-341.5,151.7
			c9.5,112.8,61.5,203.8,153.5,230.1C451.8,650.7,515.1,667.3,602.9,647.8z"/>
		<path class="st56" d="M602.5,654.7c227.7-64,176.3-476.1-71.8-422.7C424.3,255,166.9,286.2,185.3,398.9
			c18,112,62.3,210.9,157.6,226.1C457.5,643.1,515.8,679,602.5,654.7z"/>
		<path class="st57" d="M602.1,661.6c209.8-72.4,191.7-467.7-68.8-434.5C423.7,241,157,297,183.9,409c26.4,111.2,63,218.1,161.6,222
			C463.2,635.7,516.6,691.1,602.1,661.6z"/>
		<path class="st58" d="M601.7,668.5c192.4-80,206.9-458.9-65.9-446.4c-112.7,5.2-388.7,85.7-353.3,197
			c34.9,110.4,63.8,225.4,165.6,218C469,628.3,517.5,703.5,601.7,668.5z"/>
		<path class="st59" d="M601.3,675.4c175.4-86.8,222-449.7-62.9-458.3c-116-3.5-401.1,101.6-357.2,212.1
			c43.3,109.6,64.7,232.7,169.6,214C474.8,620.9,518.6,716.4,601.3,675.4z"/>
		<path class="st60" d="M600.9,682.4c159.1-93,236.7-440.2-60-470.2c-119.4-12.1-413.6,117.4-361.2,227.1
			c51.8,108.9,65.6,240.1,173.6,209.9C480.7,613.7,520.2,729.6,600.9,682.4z"/>
		<path class="st61" d="M600.5,689.3c143.6-98.9,251.2-430.5-57.1-482.2c-122.8-20.6-425.9,133.2-365,242.2
			c60.2,108.1,66.6,247.5,177.6,205.9C486.6,606.4,522.2,743.3,600.5,689.3z"/>
		<path class="st62" d="M600.1,696.2c129-104.7,265.4-420.7-54.1-494.1c-126.4-29-438.3,149-368.9,257.3
			c68.6,107.3,67.6,254.9,181.6,201.9C492.7,599.1,524.8,757.3,600.1,696.2z"/>
		<path class="st63" d="M599.8,703.1c115.6-110.6,279.3-410.8-51.2-506C418.4,159.7,97.8,362,175.7,469.6
			c77.1,106.4,68.6,262.2,185.6,197.9C498.7,591.9,528.2,771.6,599.8,703.1z"/>
	</g>
	<g class="st0">
		<path class="st64" d="M546,379.9l-6.6-6.3l-39.4,23V433l-17.3,10.1L465.4,433v-36.4l-39.4-23l-6.6,6.3
			c-8.8,8.5-15.8,18.4-20.6,29.6c-5,11.6-7.6,23.9-7.6,36.6c0,50.5,41,91.6,91.5,91.6s91.5-41.1,91.5-91.6c0-12.7-2.6-25-7.6-36.6
			C561.8,398.3,554.8,388.3,546,379.9z M441.3,499.1c-15.8-12.4-25.9-31.6-25.9-53.1c0-15.6,5.2-30.2,14.7-42.1l11.2,6.5V499.1z
			 M482.7,513.4c-15.4,0-29.6-5.2-41-14h23.7v-38.6l17.4,10.1l17.3-10.1v38.5h23.6C512.3,508.2,498.1,513.4,482.7,513.4L482.7,513.4
			z M524.2,499.1v-88.7l11.2-6.5c9.6,11.9,14.7,26.5,14.7,42.1C550.1,467.5,539.9,486.7,524.2,499.1"/>
	</g>
</g>
</svg>
